<svg width="53" height="107" viewBox="0 0 53 107" fill="none" xmlns="http://www.w3.org/2000/svg">
<path d="M41.0704 0.667857C46.676 12.0094 52.4554 23.7855 52.9334 36.648C53.3245 47.6854 49.4136 58.8966 40.0709 65.3279C33.1182 70.1078 18.3872 72.7586 14.7371 62.4165C13.4769 58.8532 14.737 52.8565 19.3867 52.5958C24.5143 52.2916 25.6006 59.505 26.1221 63.1552C27.7299 75.1051 24.0363 87.3592 16.258 96.5715C15.1716 97.8317 13.3465 96.0067 14.4329 94.7465C20.2123 87.9242 23.5583 79.2333 23.9059 70.2817C24.0363 66.197 23.9494 61.0259 22.0374 57.3323C21.5594 56.3763 20.8641 55.2899 19.6474 55.2899C18.3438 55.2899 17.4312 56.5936 17.0836 57.7234C16.3014 60.0264 17.2574 62.6772 18.9521 64.285C22.1243 67.3268 27.2953 67.4572 31.3366 66.5012C35.4648 65.5017 39.1584 63.2421 42.1567 60.2437C48.8052 53.5952 50.891 43.9918 50.1958 34.823C49.2832 23.1338 43.9384 12.3571 38.8107 2.01496C38.072 0.494056 40.3316 -0.853044 41.0704 0.667857Z" fill="#30B34C"/>
<path d="M25.9481 100.222C17.9526 102.742 9.87005 104.828 1.65719 106.436C0.87501 106.566 -0.0809879 106.088 0.00592041 105.176C0.614281 97.8319 2.56972 90.7488 5.9157 84.1438C6.43716 83.0574 7.95806 83.4919 8.30569 84.4479C10.435 90.5315 15.3887 100.091 23.3409 97.4408C24.9487 96.9193 25.6005 99.4397 24.0362 99.9612C14.5197 103.133 8.39261 92.5739 5.78535 85.1432C6.56752 85.2301 7.39316 85.3605 8.17533 85.4474C5.04662 91.6179 3.17809 98.2664 2.61318 105.176C2.04827 104.741 1.52682 104.35 0.961914 103.915C9.17478 102.264 17.2573 100.222 25.2529 97.7015C26.8607 97.18 27.5125 99.7004 25.9481 100.222Z" fill="#30B34C"/>
</svg>
