<svg width="141" height="143" viewBox="0 0 141 143" fill="none" xmlns="http://www.w3.org/2000/svg">
<g clip-path="url(#clip0_352_1015)">
<path d="M70.5 142.4C109.436 142.4 141 110.612 141 71.4C141 32.1878 109.436 0.400024 70.5 0.400024C31.5639 0.400024 0 32.1878 0 71.4C0 110.612 31.5639 142.4 70.5 142.4Z" fill="#F7D291"/>
<path d="M70.4995 133.239C104.412 133.239 131.903 105.553 131.903 71.4C131.903 37.2471 104.412 9.56067 70.4995 9.56067C36.5871 9.56067 9.0957 37.2471 9.0957 71.4C9.0957 105.553 36.5871 133.239 70.4995 133.239Z" fill="#F5B97D"/>
<path d="M90.9679 121.787C52.0318 121.787 20.4679 89.9992 20.4679 50.787C20.4679 36.4544 24.699 23.1239 31.9514 11.965C12.7167 24.6437 0 46.5203 0 71.4C0 110.612 31.5639 142.4 70.5 142.4C95.2045 142.4 116.927 129.593 129.516 110.222C118.436 117.526 105.199 121.787 90.9679 121.787Z" fill="#F5B97D"/>
<path d="M9.09668 71.4C9.09668 105.553 36.5878 133.239 70.5 133.239C85.2303 133.239 98.7454 128.01 109.326 119.301C103.468 120.894 97.3258 121.787 90.9676 121.787C52.0315 121.787 20.4676 89.9993 20.4676 50.787C20.4676 44.3837 21.3546 38.1976 22.9356 32.2985C14.2886 42.9543 9.09668 56.5652 9.09668 71.4Z" fill="#E3AA75"/>
<path d="M70.4999 128.658C101.9 128.658 127.354 103.023 127.354 71.4C127.354 39.7775 101.9 14.1424 70.4999 14.1424C39.1001 14.1424 13.6455 39.7775 13.6455 71.4C13.6455 103.023 39.1001 128.658 70.4999 128.658Z" fill="#FFEDC6"/>
<path d="M70.5001 117.206C95.62 117.206 115.984 96.698 115.984 71.4C115.984 46.102 95.62 25.5939 70.5001 25.5939C45.3803 25.5939 25.0166 46.102 25.0166 71.4C25.0166 96.698 45.3803 117.206 70.5001 117.206Z" fill="white"/>
<path d="M70.4998 82.8515C76.7797 82.8515 81.8707 77.7245 81.8707 71.4C81.8707 65.0755 76.7797 59.9485 70.4998 59.9485C64.2198 59.9485 59.1289 65.0755 59.1289 71.4C59.1289 77.7245 64.2198 82.8515 70.4998 82.8515Z" fill="#FFEDC6"/>
<path d="M70.4998 34.7549C69.2426 34.7549 68.2256 33.7293 68.2256 32.4646V23.3034C68.2256 22.0387 69.2429 21.0131 70.4998 21.0131C71.7566 21.0131 72.7739 22.0387 72.7739 23.3034V32.4646C72.7739 33.7293 71.7569 34.7549 70.4998 34.7549Z" fill="#867E88"/>
<path d="M70.4998 121.787C69.2426 121.787 68.2256 120.761 68.2256 119.497V110.335C68.2256 109.071 69.2429 108.045 70.4998 108.045C71.7566 108.045 72.7739 109.071 72.7739 110.335V119.497C72.7739 120.762 71.7569 121.787 70.4998 121.787Z" fill="#867E88"/>
<path d="M118.258 73.6903H109.161C107.904 73.6903 106.887 72.6647 106.887 71.4C106.887 70.1354 107.904 69.1097 109.161 69.1097H118.258C119.515 69.1097 120.532 70.1354 120.532 71.4C120.532 72.6647 119.515 73.6903 118.258 73.6903Z" fill="#867E88"/>
<path d="M31.8387 73.6903H22.7419C21.4848 73.6903 20.4678 72.6647 20.4678 71.4C20.4678 70.1354 21.4851 69.1097 22.7419 69.1097H31.8387C33.0958 69.1097 34.1128 70.1354 34.1128 71.4C34.1128 72.6647 33.0955 73.6903 31.8387 73.6903Z" fill="#867E88"/>
<path d="M33.0779 51.9322C32.6916 51.9322 32.3005 51.8337 31.9431 51.6257L28.0033 49.3354C26.915 48.7025 26.5421 47.3022 27.1705 46.2064C27.799 45.1092 29.1894 44.7337 30.2775 45.3677L34.2172 47.658C35.3056 48.2909 35.6785 49.6912 35.05 50.787C34.6281 51.522 33.8642 51.9322 33.0779 51.9322Z" fill="#E3AA75"/>
<path d="M111.857 97.7388C111.471 97.7388 111.08 97.6403 110.722 97.4323L106.783 95.142C105.694 94.5091 105.321 93.1088 105.95 92.013C106.578 90.917 107.969 90.5403 109.057 91.1744L112.997 93.4647C114.085 94.0976 114.458 95.4979 113.829 96.5936C113.407 97.3283 112.643 97.7388 111.857 97.7388Z" fill="#E3AA75"/>
<path d="M92.103 36.004C91.7167 36.004 91.3256 35.9056 90.9682 35.6976C89.8798 35.0647 89.5069 33.6633 90.1354 32.5686L92.4096 28.602C93.038 27.506 94.4306 27.1315 95.5165 27.7633C96.6048 28.3962 96.9777 29.7976 96.3493 30.8923L94.0751 34.8589C93.6532 35.5936 92.889 36.004 92.103 36.004Z" fill="#E3AA75"/>
<path d="M46.6187 115.343C46.2323 115.343 45.8412 115.245 45.4838 115.037C44.3954 114.404 44.0226 113.003 44.651 111.908L46.9252 107.941C47.5514 106.844 48.9463 106.469 50.0321 107.103C51.1205 107.736 51.4934 109.137 50.8649 110.232L48.5907 114.198C48.1688 114.933 47.4049 115.343 46.6187 115.343Z" fill="#E3AA75"/>
<path d="M107.922 51.9322C107.136 51.9322 106.372 51.5217 105.95 50.787C105.321 49.6909 105.694 48.2909 106.783 47.658L110.722 45.3677C111.806 44.7337 113.201 45.1095 113.829 46.2064C114.458 47.3025 114.085 48.7025 112.996 49.3354L109.057 51.6257C108.699 51.834 108.308 51.9322 107.922 51.9322Z" fill="#E3AA75"/>
<path d="M29.1425 97.7388C28.3563 97.7388 27.5924 97.3283 27.1705 96.5936C26.542 95.4976 26.9152 94.0976 28.0033 93.4647L31.943 91.1744C33.0291 90.5403 34.4193 90.9173 35.05 92.013C35.6784 93.1091 35.3052 94.5091 34.2172 95.142L30.2774 97.4323C29.9197 97.6403 29.5289 97.7388 29.1425 97.7388Z" fill="#E3AA75"/>
<path d="M48.8972 36.004C48.111 36.004 47.347 35.5936 46.9251 34.8589L44.6509 30.8923C44.0225 29.7974 44.3957 28.3962 45.4837 27.7633C46.5674 27.1315 47.96 27.5062 48.5907 28.602L50.8649 32.5686C51.4933 33.6635 51.1201 35.0647 50.0321 35.6976C49.6746 35.9056 49.2838 36.004 48.8972 36.004Z" fill="#E3AA75"/>
<path d="M94.3816 115.343C93.5953 115.343 92.8314 114.933 92.4095 114.198L90.1353 110.232C89.5069 109.137 89.88 107.736 90.9681 107.103C92.0518 106.469 93.4444 106.845 94.0751 107.941L96.3492 111.908C96.9777 113.003 96.6045 114.404 95.5164 115.037C95.1587 115.245 94.7679 115.343 94.3816 115.343Z" fill="#E3AA75"/>
<path d="M70.5002 73.6903C69.9007 73.6903 69.321 73.4521 68.8922 73.0194L41.6019 45.5355C40.7134 44.6408 40.7134 43.1914 41.6019 42.2969C42.4903 41.4022 43.9295 41.4022 44.8176 42.2969L71.2928 68.9599L99.7181 64.556C100.984 64.3591 102.121 65.2225 102.312 66.4716C102.503 67.7219 101.652 68.8906 100.411 69.0828L70.8464 73.6634C70.7313 73.6814 70.6156 73.6903 70.5002 73.6903Z" fill="#5D5360"/>
<path d="M70.4995 75.9806C73.0115 75.9806 75.0479 73.9298 75.0479 71.4C75.0479 68.8702 73.0115 66.8194 70.4995 66.8194C67.9875 66.8194 65.9512 68.8702 65.9512 71.4C65.9512 73.9298 67.9875 75.9806 70.4995 75.9806Z" fill="#F5B97D"/>
</g>
<defs>
<clipPath id="clip0_352_1015">
<rect width="141" height="142" fill="white" transform="translate(0 0.400024)"/>
</clipPath>
</defs>
</svg>
