<svg width="28" height="29" viewBox="0 0 28 29" fill="none" xmlns="http://www.w3.org/2000/svg">
<g clip-path="url(#clip0_352_877)">
<g clip-path="url(#clip1_352_877)">
<path fill-rule="evenodd" clip-rule="evenodd" d="M13.8245 0.92041C6.29524 0.92041 0.191406 7.02443 0.191406 14.5535C0.191406 22.0826 6.29524 28.1871 13.8245 28.1871C21.3538 28.1871 27.4581 22.0826 27.4581 14.5535C27.4581 7.02443 21.3538 0.92041 13.8245 0.92041ZM19.7188 17.1467H13.9389C13.9194 17.1467 13.9012 17.142 13.8818 17.1412C13.8625 17.1421 13.8444 17.1467 13.8247 17.1467C13.304 17.1467 12.8818 16.7245 12.8818 16.2038V6.5784C12.8818 6.05768 13.304 5.6355 13.8247 5.6355C14.3454 5.6355 14.7676 6.05768 14.7676 6.5784V15.2609H19.7184C20.2391 15.2609 20.6613 15.6831 20.6613 16.2038C20.6613 16.7245 20.2395 17.1467 19.7188 17.1467Z" fill="#FFB5AD"/>
</g>
</g>
<defs>
<clipPath id="clip0_352_877">
<rect width="27.2667" height="27.2667" fill="white" transform="translate(0.191406 0.92041)"/>
</clipPath>
<clipPath id="clip1_352_877">
<rect width="27.2667" height="27.2667" fill="white" transform="translate(0.191406 0.92041)"/>
</clipPath>
</defs>
</svg>
