<svg width="722" height="109" viewBox="0 0 722 109" fill="none" xmlns="http://www.w3.org/2000/svg">
<g clip-path="url(#clip0_1_15)">
<path d="M559.021 106C544.408 106 530.377 103.441 516.928 98.3225C503.48 93.2043 491.602 85.8799 481.295 76.3495L424.536 24.1439C415.994 16.2372 406.11 10.2012 394.886 6.03606C384.085 2.0121 372.807 0.000114441 361.053 0.000114441C349.298 0.000114441 337.985 2.0121 327.114 6.03606C315.96 10.2012 306.076 16.2372 297.463 24.1439L240.704 76.3495C230.468 85.8799 218.608 93.2043 205.124 98.3225C191.64 103.441 177.627 106 163.084 106H0.219727H721.886H559.021Z" fill="#F8FBF5"/>
</g>
<path d="M311.002 65.0626L299.997 55.5515L306.406 48.136L308.324 49.794L303.926 54.8827L306.549 57.149L310.617 52.4418L312.535 54.0997L308.467 58.8069L311.095 61.0779L315.511 55.9676L317.429 57.6256L311.002 65.0626Z" fill="#073614"/>
<path d="M316.321 39.7284L321.504 42.2417L321.599 42.179L321.319 36.4184L324.214 34.5006L324.529 43.0151L332.329 46.5724L329.38 48.5255L324.152 46.0337L324.057 46.0965L324.312 51.8826L321.375 53.8279L321.154 45.2506L313.414 41.654L316.321 39.7284Z" fill="#073614"/>
<path d="M337.938 44.1348L333.605 30.2497L339.083 28.5402C340.136 28.2115 341.096 28.1327 341.963 28.3036C342.828 28.47 343.566 28.8474 344.176 29.4357C344.789 30.0181 345.24 30.7703 345.528 31.6924C345.815 32.6144 345.87 33.4901 345.693 34.3193C345.515 35.1485 345.11 35.8775 344.478 36.5063C343.85 37.1337 343.003 37.6138 341.936 37.9467L338.445 39.0363L337.711 36.6837L340.728 35.7422C341.293 35.5659 341.728 35.3234 342.033 35.0148C342.342 34.7003 342.532 34.3408 342.605 33.9363C342.68 33.526 342.646 33.0925 342.504 32.636C342.36 32.175 342.142 31.8016 341.849 31.516C341.56 31.2243 341.2 31.0415 340.77 30.9673C340.339 30.8886 339.839 30.9381 339.269 31.1158L337.289 31.7336L340.874 43.2186L337.938 44.1348Z" fill="#073614"/>
<path d="M354.786 40.0087L354.393 25.4685L357.467 25.3855L357.792 37.391L364.025 37.2226L364.094 39.7572L354.786 40.0087Z" fill="#073614"/>
<path d="M385.087 36.5346C384.678 38.0672 384.04 39.2934 383.172 40.2134C382.308 41.1346 381.302 41.7457 380.154 42.0468C379.011 42.3445 377.819 42.3279 376.58 41.9969C375.331 41.6636 374.286 41.0808 373.444 40.2485C372.603 39.4163 372.038 38.3857 371.748 37.1568C371.459 35.9279 371.518 34.5495 371.926 33.0215C372.335 31.489 372.971 30.2622 373.834 29.341C374.698 28.4198 375.701 27.8103 376.844 27.5126C377.988 27.2103 379.185 27.2259 380.433 27.5592C381.673 27.8902 382.714 28.4717 383.555 29.304C384.402 30.1329 384.97 31.1618 385.26 32.3907C385.554 33.6208 385.496 35.0021 385.087 36.5346ZM382.075 35.7305C382.34 34.7378 382.415 33.861 382.299 33.1C382.188 32.3402 381.912 31.7128 381.471 31.2176C381.03 30.7225 380.45 30.3791 379.732 30.1874C379.014 29.9957 378.34 30.0045 377.711 30.2139C377.081 30.4233 376.527 30.8291 376.048 31.4314C375.573 32.0348 375.203 32.8329 374.938 33.8256C374.673 34.8183 374.596 35.6946 374.707 36.4544C374.822 37.2154 375.101 37.8434 375.542 38.3385C375.983 38.8337 376.563 39.1771 377.281 39.3688C377.999 39.5605 378.673 39.5517 379.302 39.3423C379.932 39.1329 380.484 38.7265 380.958 38.123C381.438 37.5207 381.81 36.7233 382.075 35.7305Z" fill="#073614"/>
<path d="M389.445 46.4174L397.163 34.0884L402.027 37.1334C402.958 37.7163 403.649 38.3803 404.098 39.1254C404.554 39.869 404.765 40.6519 404.731 41.474C404.704 42.2945 404.435 43.1122 403.925 43.9269C403.412 44.7456 402.795 45.3394 402.072 45.7083C401.352 46.0731 400.559 46.2023 399.693 46.0958C398.831 45.9918 397.926 45.6433 396.979 45.0504L393.722 43.0116L395.034 40.9167L397.869 42.6916C398.367 43.0032 398.823 43.1937 399.237 43.2633C399.652 43.3328 400.025 43.2814 400.356 43.109C400.691 42.9391 400.986 42.6515 401.24 42.2461C401.496 41.8368 401.63 41.4401 401.641 41.0562C401.656 40.6747 401.543 40.3075 401.3 39.9545C401.064 39.6 400.695 39.2657 400.193 38.9517L398.436 37.8513L392.052 48.0492L389.445 46.4174ZM399.615 44.9748L399.167 52.5036L396.29 50.7022L396.804 43.2149L399.615 44.9748Z" fill="#073614"/>
<path d="M404.793 57.6628L402.593 55.2091L416.775 49.2383L419.421 52.1891L411.938 65.6322L409.738 63.1784L415.661 52.9748L415.585 52.8902L404.793 57.6628ZM408.912 53.693L414.108 59.4888L412.321 61.0913L407.125 55.2954L408.912 53.693Z" fill="#073614"/>
<g clip-path="url(#clip1_1_15)">
<path d="M359.678 87.3698V63.4258H362.332V87.3698C363.887 85.3239 365.955 83.8107 368.533 82.8304L369.461 85.3559C367.926 85.9313 366.605 86.7518 365.496 87.8174C364.452 88.8191 363.664 89.9806 363.131 91.3019C362.598 92.6019 362.332 93.9766 362.332 95.4258H359.678C359.678 93.9766 359.412 92.6019 358.879 91.3019C358.346 89.9806 357.558 88.8191 356.513 87.8174C355.405 86.7518 354.084 85.9313 352.549 85.3559L353.477 82.8304C356.055 83.8107 358.123 85.3239 359.678 87.3698Z" fill="#B3C983"/>
</g>
<defs>
<clipPath id="clip0_1_15">
<rect width="721.56" height="106" fill="white" transform="translate(0.219727)"/>
</clipPath>
<clipPath id="clip1_1_15">
<rect width="32.02" height="32" fill="white" transform="matrix(1 0 0 -1 344.99 95.4258)"/>
</clipPath>
</defs>
</svg>
