<svg width="28" height="40" viewBox="0 0 28 40" fill="none" xmlns="http://www.w3.org/2000/svg">
<g clip-path="url(#clip0_362_269)">
<path d="M4.52039 12.1495C6.36789 8.58995 9.23702 5.88291 12.1918 3.86663C17.93 -0.0476794 25.5953 4.06577 25.6626 11.0916C25.6993 14.7134 25.1243 18.6527 23.2768 22.2185C19.2453 29.9911 10.3259 33.7 6.3373 35.0193C5.22391 35.3865 4.03099 34.7517 3.70064 33.6067C2.52607 29.5119 0.488932 19.9284 4.52039 12.1495Z" fill="#B1CC5E"/>
<path d="M27.1433 13.2822C27.7795 12.9586 28.0365 12.2429 27.9875 11.7264C27.9386 11.2472 27.4981 11.129 26.8864 10.9485C26.8802 10.8116 26.8802 10.6809 26.8925 10.5502C26.9353 10.0773 27.1249 9.52965 27.0148 9.14382C26.9231 8.82022 26.7334 8.55886 26.5009 8.37216C26.9659 7.93655 27.076 7.27068 26.9536 6.80395C26.8252 6.331 26.3664 6.29988 25.7179 6.21898C25.828 6.06963 25.9198 5.92027 25.9626 5.7647C26.14 5.06149 25.7791 4.39562 25.3631 4.09069C25.0511 3.86666 24.7575 3.99112 24.372 4.2276C24.317 4.2027 24.2558 4.17781 24.2008 4.15292C23.8765 4.00979 23.5339 3.68619 23.1241 3.59284C23.1118 3.1759 23.1547 2.72784 23.0017 2.4229C22.6897 1.78815 22.0107 1.52056 21.5029 1.5579C21.4784 1.51434 21.4601 1.477 21.4295 1.43966C21.0013 0.860914 20.2611 0.730229 19.7717 0.867137C19.7411 0.879583 19.7105 0.892029 19.686 0.904475C19.215 0.46886 18.5481 0.412852 18.1016 0.580875C17.8691 0.667998 17.759 0.836021 17.7039 1.0725C17.4409 1.04138 17.1717 1.03516 16.927 1.14717C16.8291 1.19074 16.7374 1.22807 16.6395 1.25919C16.4254 1.15962 16.199 1.07872 15.9604 1.09117C15.8564 1.09739 15.7524 1.09739 15.6484 1.09739C15.3426 0.786237 14.9327 0.624437 14.5901 0.611991C14.0946 0.599545 13.9355 1.06628 13.6602 1.70725C13.6052 1.83794 13.5195 1.96862 13.4339 2.10553C12.9017 1.98107 12.4734 1.72592 12.0391 1.82549C11.9228 1.85038 11.8066 1.90017 11.7026 1.95617C11.2866 1.85038 10.8584 1.91884 10.5586 2.08064C10.1243 2.32334 10.216 2.80874 10.2956 3.4995C10.3017 3.57417 10.3078 3.64885 10.3017 3.72975C9.82453 3.7422 9.3963 3.66752 9.05372 3.87288C8.64384 4.11558 8.35632 4.59476 8.26455 5.02415C8.09938 5.1735 7.92809 5.38509 7.72621 5.62779C7.46315 5.94516 6.96763 6.21898 6.81469 6.69816C6.77799 6.81017 6.73517 6.91596 6.69846 7.01553C6.45988 7.12755 6.22129 7.26446 6.06224 7.48849C5.76859 7.90543 5.40766 8.19792 5.28531 8.58997C4.8999 8.96958 4.47167 9.19983 4.32485 9.61678C4.31874 9.62922 4.31874 9.64789 4.31262 9.66034C4.04345 9.73502 3.79874 9.81592 3.62134 10.0026C3.22981 10.4009 3.08299 11.0854 3.17476 11.5335C3.16864 11.5459 3.16252 11.5522 3.1564 11.5646C2.95452 12.0873 2.63029 12.4918 2.66088 12.9461C2.36112 13.1826 2.08583 13.388 1.9696 13.6991C1.87172 13.9605 1.85948 14.2654 1.89619 14.5455C1.53525 14.7757 1.58419 15.2424 1.60866 15.8959C1.61478 16.0763 1.58419 16.2879 1.56584 16.4995C1.50467 16.5057 1.43737 16.5119 1.3762 16.5306C0.782795 16.6986 0.293392 17.3147 0.213864 17.7815C0.128218 18.2793 0.293392 19.051 0.868441 19.4243C0.899029 19.443 0.941852 19.4617 0.978557 19.4741C0.972439 19.5115 0.960204 19.5488 0.960204 19.5861C0.935734 19.8537 0.880676 20.0964 0.843971 20.3267C0.684915 20.4076 0.544211 20.5009 0.434096 20.6378C0.0548078 21.1295 0.011985 21.9198 0.219981 22.343C0.226099 22.3492 0.232217 22.3616 0.232217 22.3679C-0.0430729 22.8595 -0.055308 23.5316 0.128218 23.905C0.146571 23.9423 0.171041 23.9796 0.189394 24.017C-0.110366 24.5522 -0.055308 25.3238 0.195511 25.7096C0.34845 25.9399 0.611504 26.1826 0.923499 26.3257C0.954087 26.4689 0.99691 26.6058 1.07644 26.7365C0.837853 26.9107 0.623739 27.0849 0.513624 27.3276C0.262804 27.9002 0.415743 28.6781 0.715503 29.0328C0.813383 29.1448 0.941852 29.2568 1.08867 29.3501C1.03361 29.5431 0.990792 29.7297 0.984674 29.904C0.709385 30.3396 0.629857 30.9184 0.739973 31.2793C0.850089 31.6278 1.14373 32.0447 1.55972 32.2688C1.48631 32.4306 1.43737 32.5861 1.43737 32.7604C1.43737 33.3827 1.89619 34.0299 2.31218 34.2353C2.3183 34.2353 2.32442 34.2415 2.33053 34.2415C2.33053 34.2477 2.33665 34.2601 2.33665 34.2664C2.22654 34.3597 2.14089 34.4593 2.08583 34.5589C1.92066 34.8762 1.85337 35.4052 2.08583 35.8097C1.95736 35.8657 1.84113 35.9279 1.7616 36.0088C1.37008 36.4071 1.34561 37.0107 1.51078 37.3841C1.54137 37.4588 1.58419 37.5086 1.63313 37.5522C1.48631 37.77 1.34561 37.9815 1.32114 38.1931C1.24773 38.7532 1.59031 39.2448 1.94513 39.4377C2.28771 39.6307 2.563 39.3568 2.97899 39.0084C3.22981 38.803 3.64581 38.6599 3.82933 38.3176C4.01286 37.9753 4.25756 37.7202 4.32485 37.4215C4.47167 37.3592 4.60014 37.2846 4.69802 37.1725C4.75308 37.1041 4.7959 37.0294 4.83873 36.9485C5.24249 37.1912 5.83589 37.3219 6.33753 37.0543C6.57611 36.9298 6.75352 36.6374 6.94316 36.3449C6.99822 36.4071 7.0594 36.4631 7.12669 36.5067C7.64668 36.8365 8.42973 36.7929 8.81513 36.544C9.10266 36.3573 9.40853 35.9902 9.53088 35.5608C9.55535 35.5732 9.58594 35.5919 9.61041 35.5981C10.0815 35.7661 10.8523 35.7412 11.3111 35.2247C11.4334 35.0816 11.5069 34.8762 11.5619 34.646C11.8188 34.5464 12.0574 34.2975 12.3082 34.061C12.6202 34.1357 12.9567 34.1295 13.2687 33.9739C13.5562 33.8308 13.7703 33.4511 14.0028 33.1151C14.0395 33.1462 14.0762 33.1711 14.119 33.196C14.6574 33.5009 15.4343 33.42 15.8075 33.1524C16.1745 32.8911 16.5538 32.3248 16.511 31.7149C16.5783 31.6029 16.6395 31.4847 16.7068 31.3664C17.2512 31.6153 17.9853 31.4971 18.3401 31.2171C18.7072 30.9246 19.0681 30.3085 18.9641 29.6862C19.2884 29.6986 19.6309 29.6177 19.9124 29.3937C20.1448 29.207 20.2733 28.8274 20.4201 28.4727C20.6709 28.4167 20.9156 28.2984 21.1114 28.0931C21.3989 27.7944 21.4417 27.1658 21.6253 26.6991C21.6803 26.5622 21.7476 26.4253 21.821 26.2884C22.237 26.1888 22.7142 26.1453 22.9956 25.9337C23.0078 25.9275 23.0139 25.915 23.0262 25.9088C23.1118 25.8839 23.1975 25.8528 23.2648 25.8154C23.6991 25.5665 24.1885 24.9567 24.109 24.2659C24.0968 24.1414 24.0417 24.017 23.9683 23.8925C24.2191 23.8863 24.4577 23.8614 24.6412 23.768C25.2774 23.4382 25.5344 22.7226 25.4793 22.2061C25.4732 22.1189 25.4426 22.0443 25.4059 21.9758C25.4365 21.9571 25.4671 21.9322 25.4977 21.9073C26.0299 21.4282 26.1033 20.669 25.9259 20.1836C25.8708 20.028 25.7791 19.9346 25.6628 19.8662C25.6261 19.7044 25.5894 19.5426 25.5711 19.387C25.5711 19.3746 25.5711 19.3621 25.5711 19.3559C25.9198 19.2688 26.2746 19.1879 26.4948 19.0012C26.7885 18.746 26.9475 18.4038 27.0026 18.0677C27.2106 17.7192 27.3268 17.2712 27.1984 16.8293C27.1555 16.6986 27.0699 16.5742 26.9659 16.4497C27.0026 16.3626 27.0271 16.2755 27.0454 16.1821C27.0944 15.8896 26.9475 15.5349 26.8191 15.1802C26.8558 15.118 26.8925 15.0495 26.9231 14.9748C27.0699 14.589 26.8741 13.9916 26.8619 13.4875C26.8619 13.4502 26.8619 13.4191 26.8619 13.3817C26.9659 13.3506 27.0638 13.3257 27.1433 13.2822ZM23.2525 12.1931C23.2892 12.6039 23.5401 13.1453 23.9866 13.4377C23.9866 13.4689 23.9805 13.4938 23.9805 13.5249C23.9866 13.9045 23.9255 14.253 23.9377 14.5641C23.8153 14.6201 23.7052 14.6824 23.6196 14.7633C23.2342 15.0869 23.4177 15.5474 23.6196 16.207C23.6746 16.3937 23.6991 16.6115 23.7358 16.8355C23.3994 16.9227 23.0996 16.9973 22.8855 17.2152C22.4511 17.657 22.3104 18.4411 22.4634 18.8829C22.5184 19.0385 22.6102 19.2065 22.7325 19.3621C22.7081 19.4803 22.6958 19.5986 22.7142 19.7168C22.7142 19.7417 22.7203 19.7666 22.7203 19.7915C22.3838 19.8848 22.078 19.9657 21.8639 20.1836C21.5886 20.4698 21.4417 20.8868 21.4112 21.2726C21.3316 21.3348 21.2582 21.4033 21.1909 21.4842C21.1053 21.5153 21.0257 21.5464 20.9523 21.5837C20.518 21.8327 20.622 22.3181 20.7015 23.0088C20.7199 23.1769 20.7138 23.3635 20.7076 23.5565C20.2305 23.6747 19.7839 23.6934 19.4841 23.9672C19.0375 24.3779 18.8601 25.1247 18.9764 25.579C18.9703 25.5914 18.9641 25.5976 18.9641 25.6101C18.8968 25.7719 18.8234 25.9275 18.75 26.0706C18.4992 26.2199 18.2423 26.388 18.0954 26.6493C18.0465 26.7427 17.9914 26.8298 17.9303 26.9169C17.7406 26.9418 17.551 26.9854 17.3858 27.0974C17.294 27.1596 17.1962 27.2156 17.1044 27.2654C16.511 26.948 15.8197 27.1036 15.4343 27.4085C15.0428 27.7197 15.2141 28.174 15.3976 28.8336C15.1896 28.9207 14.9755 29.0141 14.792 29.1572C14.2047 28.7901 13.4889 28.9083 13.0852 29.2008C12.7181 29.4622 12.8038 29.8729 12.9384 30.4392C12.6325 30.5387 12.3021 30.6445 12.0819 30.8997C12.0024 30.993 11.9106 31.0802 11.825 31.1611C11.7271 31.1673 11.6231 31.1797 11.5252 31.1984C11.4273 31.1362 11.3294 31.0802 11.2316 31.0428C10.7605 30.8748 10.4669 31.2731 10.0142 31.7896C9.82453 32.0074 9.52477 32.2003 9.30453 32.4492C8.95584 32.499 8.53984 32.5052 8.22173 32.723C8.16055 32.6484 8.09938 32.5799 8.03209 32.5239C7.51821 32.1381 6.86363 32.1692 6.42317 32.3808C6.40482 32.3434 6.39258 32.3123 6.37423 32.275C6.33141 32.1816 6.30082 32.0758 6.27023 31.9638C6.34364 31.9203 6.41705 31.8643 6.47823 31.802C6.75964 31.7585 6.86975 31.5344 6.9554 31.2046C7.07163 31.0553 7.16951 30.8997 7.2001 30.7254C7.21845 30.6259 7.21233 30.5201 7.20622 30.4143C7.28574 30.2152 7.35304 30.0098 7.32857 29.792C7.37751 29.7609 7.42645 29.7297 7.47539 29.6862C7.59162 29.5742 7.72009 29.4808 7.83632 29.3875C8.17279 29.3626 8.47255 29.2008 8.65607 29.0016C8.8396 28.8025 8.8029 28.5723 8.68666 28.2922C8.90689 28.1118 8.88854 27.7882 8.87019 27.3525C9.1883 27.2281 9.21277 26.8547 9.28006 26.3444C9.28618 26.2946 9.29842 26.2448 9.31065 26.1888C9.57982 26.1764 9.82453 26.0893 10.0019 25.9586C10.3139 25.7221 10.1855 25.3549 10.0509 24.826C10.0203 24.6953 10.0081 24.5397 9.9897 24.3841C9.9897 24.3841 9.99582 24.3841 9.99582 24.3779C10.369 24.1477 10.7544 24.0543 10.9502 23.7556C10.9563 23.7494 10.9563 23.7432 10.9624 23.7369C11.3417 23.6249 11.6292 23.3387 11.7516 23.0524C11.8311 22.8719 11.8005 22.7163 11.7026 22.5608C12.0452 22.4114 12.296 22.1127 12.3939 21.8264C12.504 21.5028 12.2838 21.285 11.9595 20.9926C12.0146 20.9428 12.0697 20.893 12.1125 20.8245C12.3572 20.4574 12.6692 20.2084 12.7181 19.8537C12.7242 19.8102 12.7242 19.7666 12.7242 19.7168C12.9751 19.4181 13.2442 19.2003 13.3115 18.8829C13.336 18.7834 13.336 18.6713 13.3299 18.5656C13.3911 18.4722 13.4339 18.3664 13.4583 18.2544C13.4828 18.1299 13.5134 18.0179 13.544 17.9059C13.6174 17.8624 13.6786 17.8126 13.7398 17.7503C14.0334 17.4267 14.3821 17.2276 14.4861 16.8853C14.535 16.7297 14.5412 16.5555 14.5228 16.3875C14.5289 16.375 14.535 16.3688 14.5412 16.3564C14.639 16.1261 14.7614 15.9332 14.8531 15.7403C15.1284 15.6407 15.3854 15.5598 15.5505 15.3607C15.783 15.0744 15.8687 14.6512 15.832 14.3214C15.9971 14.2032 16.1439 14.0849 16.2235 13.9107C16.4315 13.4689 16.3336 12.8528 16.1072 12.5665C15.8625 12.2554 15.3364 11.9504 14.8164 12.106C14.5106 12.1994 14.2414 12.6101 13.9416 12.859C13.6541 13.0955 13.2503 13.2822 13.0913 13.5498C13.0056 13.6991 12.9628 13.8609 12.9445 14.0165C12.8099 14.0725 12.6814 14.141 12.5958 14.2343C12.2043 14.6388 12.192 15.2424 12.3572 15.6096C12.3633 15.6158 12.3633 15.622 12.3694 15.6283C12.2777 15.8025 12.1798 15.9705 12.1125 16.1386C12.1003 16.151 12.088 16.1697 12.0758 16.1821C12.0697 16.1883 12.0574 16.2008 12.0513 16.207C11.8066 16.2817 11.5741 16.4248 11.4212 16.6613C11.3417 16.7858 11.3111 16.9538 11.2927 17.1342C11.256 17.2836 11.2438 17.4392 11.2621 17.5823C11.256 17.6445 11.2499 17.7068 11.2377 17.7628C11.1031 17.9619 10.9869 18.2108 10.8462 18.3975C10.6198 18.6962 10.2711 18.9701 10.1793 19.275C10.1426 19.3994 10.1304 19.5239 10.1365 19.6484C10.1121 19.6795 10.0876 19.7168 10.057 19.7479C10.0081 19.7417 9.95911 19.7417 9.91017 19.7479C9.433 19.8039 8.97419 20.2147 8.85184 20.5632C8.80901 20.6876 8.79066 20.8308 8.78454 20.9863C8.57655 21.1232 8.40526 21.3037 8.33185 21.478C8.20338 21.7767 8.16667 22.2372 8.35632 22.6168C8.29514 22.6479 8.23396 22.679 8.17891 22.7101C8.00762 22.7475 7.86079 22.8097 7.75068 22.8906C7.46315 23.1084 7.17563 23.5689 7.23069 24.0543C7.06551 24.2223 6.93704 24.4401 6.90646 24.6953C6.89422 24.77 6.90646 24.8509 6.92481 24.9318C6.59446 25.1247 6.25188 25.5354 6.27023 26.027C6.27023 26.0644 6.27635 26.1017 6.28859 26.1453C6.12953 26.2075 5.99494 26.2946 5.90318 26.3942C5.64013 26.6867 5.41989 27.2654 5.64624 27.757C5.68907 27.8566 5.76859 27.9437 5.86036 28.0246C5.85424 28.0308 5.85424 28.0309 5.84812 28.0371C5.47495 28.1242 5.01002 28.4229 4.88767 28.9145C4.85096 29.0514 4.87543 29.2195 4.91826 29.3937C4.71026 29.3066 4.42273 29.2817 4.08627 29.2568C4.17803 28.7901 4.41662 28.2798 4.34932 27.8815C4.34932 27.8753 4.34321 27.8628 4.34321 27.8566C4.4105 27.7882 4.47167 27.7135 4.5145 27.6326C4.85096 26.9978 4.66132 26.2573 4.33097 25.859C4.20862 25.7096 4.0618 25.6474 3.89663 25.6412C3.78651 25.5043 3.67028 25.3674 3.56628 25.2242C3.79263 25.0998 4.00062 24.9629 4.12297 24.7886C4.46556 24.3032 4.45332 23.7058 4.28203 23.2702C4.60014 22.7661 4.56956 22.1376 4.37379 21.7269C4.69191 21.2166 4.66744 20.5818 4.46556 20.1711C4.33709 19.9035 4.11686 19.8226 3.8171 19.8102C3.8171 19.8039 3.8171 19.8039 3.8171 19.7977C4.42273 19.6048 4.80814 19.0385 4.88767 18.5656C4.92437 18.3602 4.8632 18.1984 4.74696 18.0553C4.83873 17.8624 4.8999 17.6445 4.89378 17.4081C4.88767 17.1716 4.74696 16.9164 4.58791 16.6613C4.67967 16.3439 4.72249 15.9643 4.82649 15.6469C4.94884 15.2736 5.18131 14.8753 5.2486 14.5206C5.33425 14.4521 5.42601 14.3837 5.51166 14.309C5.60342 14.2405 5.68907 14.1658 5.76859 14.0787C5.85424 13.9916 5.92765 13.8983 5.97047 13.7987C5.97659 13.7862 5.97659 13.78 5.98271 13.7676C6.02553 13.6804 6.06224 13.5933 6.08671 13.4938C6.09894 13.4377 6.10506 13.3693 6.10506 13.3071C6.14176 12.971 6.06224 12.6412 5.93377 12.3798C5.96435 12.3176 5.99494 12.2491 6.03165 12.1807C6.45376 12.05 6.9554 11.9815 7.23069 11.7451C7.6895 11.3468 7.81185 10.7369 7.73844 10.264C7.98314 10.0586 8.22173 9.85326 8.32573 9.61678C8.3502 9.56077 8.36243 9.51099 8.38078 9.45498C8.66219 9.38652 8.93137 9.24962 9.13324 9.00692C9.28006 8.83267 9.34736 8.55886 9.40242 8.26637C9.42077 8.26015 9.43912 8.25392 9.45136 8.2477C9.82453 8.07346 10.0876 7.50716 10.4302 7.14622C10.6015 6.96575 10.8095 6.79773 10.993 6.62348C11.3906 6.62348 11.8066 6.66082 12.088 6.52391C12.1247 6.50524 12.1553 6.48035 12.192 6.46168C12.4367 6.45546 12.6692 6.40567 12.8344 6.31233C13.1769 6.11941 13.5501 5.70869 13.6602 5.20462C13.7275 5.22329 13.7948 5.23573 13.856 5.24818C14.0579 5.3602 14.2659 5.42243 14.4433 5.42865C14.9388 5.4411 15.6729 5.1735 15.9482 4.53253C15.9849 4.4454 16.0032 4.34583 16.0155 4.23382C16.2296 4.3645 16.4743 4.4454 16.7435 4.43918C17.0555 4.43296 17.4042 4.18403 17.7467 3.97867C17.8263 4.26493 17.9058 4.51386 18.0954 4.70055C18.4931 5.0926 19.166 5.22951 19.6065 5.12994C19.8328 5.31663 20.1204 5.4411 20.4018 5.4971C20.4079 5.50955 20.414 5.522 20.4201 5.53444C20.518 5.69624 20.6526 5.83937 20.8055 5.95761C20.9462 6.17542 21.1359 6.36211 21.3867 6.4679C21.5519 6.54258 21.7537 6.5488 21.974 6.53013C21.9434 6.9533 22.0963 7.39514 22.3104 7.71252C22.3104 7.83076 22.3166 7.93655 22.341 8.02989C22.4695 8.51529 22.9283 9.1376 23.5951 9.23095C23.6074 9.29318 23.6196 9.36163 23.6441 9.42386C23.7848 9.79725 23.8398 10.1644 23.9744 10.4569C23.9622 10.544 23.9499 10.6249 23.9316 10.7058C23.4911 11.0916 23.2158 11.7575 23.2525 12.1931Z" fill="#7CA065"/>
</g>
<defs>
<clipPath id="clip0_362_269">
<rect width="28" height="39" fill="white" transform="translate(0 0.5)"/>
</clipPath>
</defs>
</svg>
