<svg width="65" height="33" viewBox="0 0 65 33" fill="none" xmlns="http://www.w3.org/2000/svg">
<path fill-rule="evenodd" clip-rule="evenodd" d="M7.53199 32.9838C6.79604 32.9576 5.84753 32.9 5.41642 32.813C4.75833 32.6801 4.13686 32.4787 3.62003 32.2152C3.0128 31.9058 2.46856 31.5109 1.99863 31.0417C1.52763 30.5716 1.1312 30.0269 0.820496 29.4188C0.557815 28.9047 0.35644 28.287 0.222981 27.6327C0.134216 27.1972 0.0755094 26.2416 0.0488966 25.5009C0.0381046 25.1982 0.0325674 24.8064 0.0325674 24.6257L0.0299683 8.37691C0.0299683 8.19694 0.035449 7.80504 0.0461845 7.50196C0.0723452 6.76607 0.129921 5.81756 0.216992 5.38645C0.349829 4.72842 0.551374 4.10689 0.814733 3.59006C1.12425 2.98277 1.51904 2.43865 1.98824 1.96866C2.45834 1.49771 3.00313 1.10129 3.61122 0.790528C4.12533 0.527904 4.74302 0.326472 5.39732 0.193013C5.83278 0.104247 6.78841 0.0455411 7.52911 0.0189849C7.83173 0.00813637 8.22358 0.00259912 8.40427 0.00259912L24.6531 0C24.8331 0 25.225 0.00542425 25.528 0.0162162C26.2639 0.0424334 27.2125 0.0999531 27.6435 0.187024C28.3016 0.319918 28.9231 0.521462 29.4399 0.784765C30.0471 1.09429 30.5914 1.48913 31.0613 1.95827C31.5323 2.42843 31.9287 2.97311 32.2394 3.58125C32.5021 4.09536 32.7036 4.71299 32.837 5.36735C32.9258 5.80282 32.9844 6.7585 33.011 7.49914C33.0219 7.80182 33.0274 8.19361 33.0274 8.37431L33.03 24.6231C33.03 24.8031 33.0245 25.195 33.0138 25.498C32.9875 26.2339 32.93 27.1824 32.8429 27.6136C32.7101 28.2716 32.5086 28.8931 32.2452 29.4099C31.9357 30.0172 31.5408 30.5614 31.0718 31.0314C30.6016 31.5023 30.0568 31.8988 29.4487 32.2095C28.9346 32.4722 28.317 32.6736 27.6626 32.807C27.2272 32.8958 26.2715 32.9545 25.5309 32.981C25.2281 32.9919 24.8364 32.9974 24.6557 32.9974L8.40687 33C8.22686 33 7.83495 32.9946 7.53199 32.9838Z" fill="url(#paint0_radial_17_668)"/>
<mask id="mask0_17_668" style="mask-type:luminance" maskUnits="userSpaceOnUse" x="0" y="0" width="34" height="33">
<path fill-rule="evenodd" clip-rule="evenodd" d="M7.53199 32.9838C6.79604 32.9576 5.84753 32.9 5.41642 32.813C4.75833 32.6801 4.13686 32.4787 3.62003 32.2152C3.0128 31.9058 2.46856 31.5109 1.99863 31.0417C1.52763 30.5716 1.1312 30.0269 0.820496 29.4188C0.557815 28.9047 0.35644 28.287 0.222981 27.6327C0.134216 27.1972 0.0755094 26.2416 0.0488966 25.5009C0.0381046 25.1982 0.0325674 24.8064 0.0325674 24.6257L0.0299683 8.37691C0.0299683 8.19694 0.035449 7.80504 0.0461845 7.50196C0.0723452 6.76607 0.129921 5.81756 0.216992 5.38645C0.349829 4.72842 0.551374 4.10689 0.814733 3.59006C1.12425 2.98277 1.51904 2.43865 1.98824 1.96866C2.45834 1.49771 3.00313 1.10129 3.61122 0.790528C4.12533 0.527904 4.74302 0.326472 5.39732 0.193013C5.83278 0.104247 6.78841 0.0455411 7.52911 0.0189849C7.83173 0.00813637 8.22358 0.00259912 8.40427 0.00259912L24.6531 0C24.8331 0 25.225 0.00542425 25.528 0.0162162C26.2639 0.0424334 27.2125 0.0999531 27.6435 0.187024C28.3016 0.319918 28.9231 0.521462 29.4399 0.784765C30.0471 1.09429 30.5914 1.48913 31.0613 1.95827C31.5323 2.42843 31.9287 2.97311 32.2394 3.58125C32.5021 4.09536 32.7036 4.71299 32.837 5.36735C32.9258 5.80282 32.9844 6.7585 33.011 7.49914C33.0219 7.80182 33.0274 8.19361 33.0274 8.37431L33.03 24.6231C33.03 24.8031 33.0245 25.195 33.0138 25.498C32.9875 26.2339 32.93 27.1824 32.8429 27.6136C32.7101 28.2716 32.5086 28.8931 32.2452 29.4099C31.9357 30.0172 31.5408 30.5614 31.0718 31.0314C30.6016 31.5023 30.0568 31.8988 29.4487 32.2095C28.9346 32.4722 28.317 32.6736 27.6626 32.807C27.2272 32.8958 26.2715 32.9545 25.5309 32.981C25.2281 32.9919 24.8364 32.9974 24.6557 32.9974L8.40687 33C8.22686 33 7.83495 32.9946 7.53199 32.9838Z" fill="white"/>
</mask>
<g mask="url(#mask0_17_668)">
<path fill-rule="evenodd" clip-rule="evenodd" d="M16.5984 4.24512C13.2833 4.24512 12.8672 4.25969 11.5652 4.31928C10.2657 4.37912 9.37863 4.58601 8.60248 4.88957C7.79963 5.2031 7.11859 5.6225 6.4401 6.30506C5.76109 6.98736 5.34403 7.67221 5.03123 8.47931C4.7286 9.26007 4.52261 10.1523 4.46412 11.4586C4.40588 12.768 4.39062 13.1866 4.39062 16.5204C4.39062 19.8541 4.40537 20.2712 4.46437 21.5806C4.52414 22.8874 4.72987 23.7794 5.03148 24.5599C5.34352 25.3672 5.76058 26.0521 6.43933 26.7344C7.11757 27.4172 7.79861 27.8376 8.60095 28.1512C9.37761 28.4547 10.2649 28.6616 11.5642 28.7214C12.8662 28.781 13.282 28.7956 16.5969 28.7956C19.9123 28.7956 20.3271 28.781 21.6292 28.7214C22.9287 28.6616 23.8167 28.4547 24.5934 28.1512C25.396 27.8376 26.076 27.4172 26.7542 26.7344C27.4332 26.0521 27.8503 25.3672 28.1631 24.5601C28.4632 23.7794 28.6692 22.8871 28.7302 21.5808C28.7887 20.2715 28.804 19.8541 28.804 16.5204C28.804 13.1866 28.7887 12.7682 28.7302 11.4589C28.6692 10.1521 28.4632 9.26007 28.1631 8.47957C27.8503 7.67221 27.4332 6.98736 26.7542 6.30506C26.0752 5.62225 25.3962 5.20284 24.5926 4.88957C23.8144 4.58601 22.9269 4.37912 21.6274 4.31928C20.3253 4.25969 19.9108 4.24512 16.5946 4.24512H16.5984ZM16.1915 6.45711H16.1916L16.5984 6.45723C19.8577 6.45723 20.244 6.46899 21.531 6.52781C22.7212 6.58254 23.3671 6.78252 23.7974 6.95054C24.3671 7.17303 24.7732 7.43899 25.2002 7.86863C25.6274 8.29826 25.8919 8.70744 26.1136 9.28028C26.2807 9.71247 26.4799 10.362 26.534 11.5589C26.5925 12.8529 26.6052 13.2416 26.6052 16.5176C26.6052 19.7935 26.5925 20.1822 26.534 21.4762C26.4796 22.6731 26.2807 23.3227 26.1136 23.7548C25.8924 24.3277 25.6274 24.7356 25.2002 25.165C24.7729 25.5946 24.3673 25.8606 23.7974 26.083C23.3676 26.2518 22.7212 26.4513 21.531 26.506C20.2442 26.5649 19.8577 26.5776 16.5984 26.5776C13.339 26.5776 12.9527 26.5649 11.6659 26.506C10.4757 26.4508 9.82978 26.2508 9.39924 26.0828C8.82959 25.8603 8.42269 25.5943 7.99545 25.1647C7.56822 24.7351 7.30374 24.3269 7.08198 23.7538C6.9149 23.3216 6.71577 22.6721 6.66161 21.4752C6.60312 20.1812 6.59142 19.7925 6.59142 16.5145C6.59142 13.2365 6.60312 12.8498 6.66161 11.5558C6.71603 10.359 6.9149 9.7094 7.08198 9.2767C7.30323 8.70386 7.56822 8.29468 7.99545 7.86505C8.42269 7.43541 8.82959 7.16945 9.39924 6.94645C9.82953 6.77766 10.4757 6.57819 11.6659 6.52321C12.792 6.47206 13.2284 6.45672 15.5034 6.45416V6.45723C15.7159 6.45689 15.9446 6.457 16.1913 6.45711H16.1914H16.1915ZM21.6495 9.96799C21.6495 9.1545 22.3056 8.49547 23.1143 8.49547V8.49496C23.923 8.49496 24.5791 9.15476 24.5791 9.96799C24.5791 10.7812 23.923 11.441 23.1143 11.441C22.3056 11.441 21.6495 10.7812 21.6495 9.96799ZM16.5982 10.2165C13.1364 10.2167 10.3297 13.0391 10.3297 16.5204C10.3297 20.0017 13.1365 22.8229 16.5984 22.8229C20.0603 22.8229 22.8661 20.0017 22.8661 16.5204C22.8661 13.0391 20.0601 10.2165 16.5982 10.2165ZM20.6674 16.5204C20.6674 14.2605 18.8455 12.4287 16.5984 12.4287C14.3511 12.4287 12.5295 14.2605 12.5295 16.5204C12.5295 18.7801 14.3511 20.6122 16.5984 20.6122C18.8455 20.6122 20.6674 18.7801 20.6674 16.5204Z" fill="white"/>
</g>
<path fill-rule="evenodd" clip-rule="evenodd" d="M55.5 3.85002C51.7611 3.85002 48.73 6.88106 48.73 10.62V22.38C48.73 26.119 51.7611 29.15 55.5 29.15C59.239 29.15 62.27 26.119 62.27 22.38V21.54C62.27 20.114 61.5677 18.852 60.49 18.0811V20.7C60.49 23.4559 58.2559 25.69 55.5 25.69C52.7441 25.69 50.51 23.4559 50.51 20.7V20.14C50.51 17.0748 52.9948 14.59 56.06 14.59H57.79V12.3C57.79 11.0353 56.7648 10.01 55.5 10.01C54.2353 10.01 53.21 11.0353 53.21 12.3V12.58H50.51V12.3C50.51 9.54413 52.7441 7.31002 55.5 7.31002C58.2559 7.31002 60.49 9.54412 60.49 12.3V15.0417C63.109 16.0378 64.97 18.5716 64.97 21.54V22.38C64.97 27.6102 60.7302 31.85 55.5 31.85C50.2699 31.85 46.03 27.6102 46.03 22.38V10.62C46.03 5.38989 50.2699 1.15002 55.5 1.15002C60.7302 1.15002 64.97 5.38989 64.97 10.62V12.02H62.27V10.62C62.27 6.88106 59.239 3.85002 55.5 3.85002ZM57.79 17.29H56.06C54.486 17.29 53.21 18.566 53.21 20.14V20.7C53.21 21.9648 54.2353 22.99 55.5 22.99C56.7648 22.99 57.79 21.9648 57.79 20.7V17.29Z" fill="url(#paint1_linear_17_668)"/>
<defs>
<radialGradient id="paint0_radial_17_668" cx="0" cy="0" r="1" gradientUnits="userSpaceOnUse" gradientTransform="translate(8.79565 35.5417) rotate(-90) scale(32.7054 32.7055)">
<stop stop-color="#FFDD55"/>
<stop offset="0.1" stop-color="#FFDD55"/>
<stop offset="0.5" stop-color="#FF543E"/>
<stop offset="1" stop-color="#C837AB"/>
</radialGradient>
<linearGradient id="paint1_linear_17_668" x1="46.03" y1="1.15002" x2="74.7538" y2="21.853" gradientUnits="userSpaceOnUse">
<stop stop-color="#D9D9D9"/>
<stop offset="0.0001" stop-color="#7300E4"/>
<stop offset="0.455965" stop-color="#E300A4"/>
<stop offset="1" stop-color="#FFB763"/>
</linearGradient>
</defs>
</svg>
