<svg width="15" height="15" viewBox="0 0 15 15" fill="none" xmlns="http://www.w3.org/2000/svg">
<g clip-path="url(#clip0_350_476)">
<path d="M14.5175 4.79096C14.9945 2.40624 15 0.518768 15 0.439575C15 0.323074 14.9538 0.211265 14.8712 0.128868C14.7888 0.0464706 14.6771 0.00012207 14.5605 0.00012207C14.4813 0.00012207 12.5939 0.00561523 10.2091 0.482605C9.35954 0.652435 8.55456 0.861632 7.80109 1.10699C7.79594 1.10848 7.79102 1.1102 7.78598 1.11191C7.29823 1.27122 6.832 1.44574 6.39015 1.63502C5.84976 1.86665 5.34461 2.12082 4.87632 2.39628C4.86213 2.40384 4.84828 2.41208 4.83501 2.42112C4.08371 2.86709 3.42785 3.36823 2.87601 3.92006C1.78024 5.01583 1.17679 6.47255 1.17679 8.02208C1.17679 9.42421 1.67095 10.7503 2.57675 11.8018L0.128746 14.2499C-0.0429153 14.4216 -0.0429153 14.6998 0.128746 14.8714C0.214577 14.9572 0.326957 15.0001 0.439453 15.0001C0.551948 15.0001 0.664443 14.9572 0.750159 14.8714L3.19828 12.4234C4.24964 13.329 5.57578 13.8232 6.97791 13.8232C8.52756 13.8232 9.98427 13.2199 11.08 12.1242C11.632 11.5723 12.133 10.9163 12.579 10.165C12.588 10.1517 12.5963 10.1379 12.6038 10.1237C12.8793 9.65526 13.1335 9.15024 13.365 8.60996C13.5546 8.16753 13.7292 7.70084 13.8888 7.21252C13.8901 7.20841 13.8915 7.20417 13.8928 7.20005C14.1382 6.44623 14.3476 5.64091 14.5175 4.79096ZM10.3646 1.34778C11.9974 1.02002 13.4152 0.921371 14.1084 0.89173C14.0787 1.58501 13.9801 3.00282 13.6523 4.63555C13.5292 5.24895 13.365 5.93056 13.1479 6.63483L8.98658 6.63494L11.543 4.07868C11.7145 3.90702 11.7145 3.6287 11.543 3.45715C11.3713 3.28549 11.0931 3.28549 10.9214 3.45715L8.36528 6.01341V1.85223C9.06955 1.63514 9.75116 1.47092 10.3646 1.34778ZM11.9584 9.47834H6.14318L8.10767 7.51385L12.8516 7.51373C12.6075 8.17715 12.3133 8.84411 11.9584 9.47834ZM7.48637 2.14852V6.8922L5.52177 8.8567L5.52165 3.04173C6.156 2.68685 6.82285 2.39262 7.48637 2.14852ZM2.0557 8.02208C2.0557 6.70738 2.56771 5.47131 3.49743 4.54159C3.84773 4.19129 4.23351 3.8752 4.64275 3.59002L4.64298 9.7356L3.20057 11.1781C2.45945 10.2943 2.0557 9.18926 2.0557 8.02208ZM10.4586 11.5028C9.52891 12.4324 8.29272 12.9443 6.97791 12.9443C5.81085 12.9443 4.70581 12.5405 3.82198 11.7995L5.26428 10.3572H11.4102C11.125 10.7666 10.8089 11.1524 10.4586 11.5028Z" fill="white"/>
</g>
<defs>
<clipPath id="clip0_350_476">
<rect width="15" height="15" fill="white"/>
</clipPath>
</defs>
</svg>
