<svg width="29" height="18" viewBox="0 0 29 18" fill="none" xmlns="http://www.w3.org/2000/svg">
<path d="M3.5165 5.35845C3.86027 5.55457 4.8965 6.13703 6.62526 7.10554C8.35407 8.07405 9.67846 8.81977 10.5985 9.34276C10.6996 9.40008 10.9143 9.5247 11.2428 9.71678C11.5714 9.90899 11.8444 10.0643 12.0617 10.1828C12.2791 10.3012 12.5419 10.4341 12.8504 10.5812C13.1588 10.7281 13.4495 10.8386 13.7224 10.9118C13.9954 10.9856 14.2482 11.0221 14.4807 11.0221H14.4959H14.5112C14.7437 11.0221 14.9965 10.9855 15.2695 10.9118C15.5424 10.8386 15.8334 10.728 16.1415 10.5812C16.4498 10.4339 16.7126 10.3012 16.93 10.1828C17.1474 10.0643 17.4202 9.90899 17.7489 9.71678C18.0773 9.52454 18.2923 9.40008 18.3934 9.34276C19.3234 8.81977 21.6893 7.49155 25.4905 5.3582C26.2285 4.94154 26.845 4.43878 27.3403 3.85027C27.836 3.262 28.0836 2.64489 28.0836 1.99926C28.0836 1.45973 27.8434 0.997906 27.3631 0.613785C26.8829 0.229595 26.3141 0.0375977 25.6572 0.0375977H3.33448C2.55607 0.0375977 1.95703 0.250073 1.53747 0.675024C1.11796 1.10006 0.908203 1.63134 0.908203 2.26881C0.908203 2.78372 1.18632 3.3417 1.74228 3.94242C2.29819 4.54317 2.88979 5.01523 3.5165 5.35845Z" fill="#30B34C"/>
<path d="M26.5669 6.67009C23.2512 8.48443 20.7335 9.89446 19.0151 10.8999C18.4388 11.243 17.9714 11.5109 17.6124 11.7028C17.2533 11.8949 16.7759 12.0911 16.1793 12.2913C15.5829 12.4917 15.0271 12.5916 14.5114 12.5916H14.4959H14.4807C13.9651 12.5916 13.409 12.4917 12.8126 12.2913C12.2162 12.0911 11.7384 11.8949 11.3795 11.7028C11.0207 11.5109 10.5531 11.243 9.97692 10.8999C8.612 10.0908 6.09973 8.68067 2.44001 6.67009C1.8636 6.3597 1.35305 6.00394 0.908203 5.60352V15.3377C0.908203 15.8775 1.14568 16.3391 1.62091 16.7233C2.09603 17.1076 2.66734 17.2996 3.33464 17.2996H25.6574C26.3245 17.2996 26.8958 17.1076 27.3709 16.7233C27.8463 16.339 28.0836 15.8776 28.0836 15.3377V5.60352C27.6488 5.99565 27.1435 6.35142 26.5669 6.67009Z" fill="#30B34C"/>
</svg>
