<svg width="22" height="29" viewBox="0 0 22 29" fill="none" xmlns="http://www.w3.org/2000/svg">
<g clip-path="url(#clip0_352_864)">
<g clip-path="url(#clip1_352_864)">
<path fill-rule="evenodd" clip-rule="evenodd" d="M10.3952 0.468635C5.04018 0.6594 0.591491 4.90112 0.0775424 10.3155C-0.0274559 11.3984 0.0333363 12.4476 0.221228 13.4519C0.221228 13.4519 0.237805 13.5697 0.29307 13.7942C0.458861 14.546 0.707545 15.2754 1.01702 15.9599C2.09465 18.5521 4.58703 22.8892 10.1797 27.6078C10.5223 27.8996 11.0252 27.8996 11.3734 27.6078C16.966 22.8948 19.4584 18.5577 20.5415 15.9543C20.8565 15.2698 21.0997 14.546 21.2655 13.7885C21.3152 13.5697 21.3373 13.4463 21.3373 13.4463C21.4644 12.773 21.5307 12.0829 21.5307 11.3759C21.5307 5.21532 16.5073 0.249816 10.3952 0.468635ZM10.7761 16.8072C7.89134 16.8072 5.55371 14.4338 5.55371 11.505C5.55371 8.57623 7.89134 6.20288 10.7761 6.20288C13.6608 6.20288 15.9985 8.57623 15.9985 11.505C15.9985 14.4338 13.6608 16.8072 10.7761 16.8072Z" fill="#FFCE5C"/>
</g>
</g>
<defs>
<clipPath id="clip0_352_864">
<rect width="21.5959" height="27.7662" fill="white" transform="translate(0.0263672 0.46167)"/>
</clipPath>
<clipPath id="clip1_352_864">
<rect width="21.5044" height="27.365" fill="white" transform="translate(0.0263672 0.46167)"/>
</clipPath>
</defs>
</svg>
