<svg width="77" height="77" viewBox="0 0 77 77" fill="none" xmlns="http://www.w3.org/2000/svg">
<g clip-path="url(#clip0_362_93)">
<path d="M50.8203 36.9961C51.6509 36.9961 52.3242 36.3228 52.3242 35.4922C52.3242 34.6616 51.6509 33.9883 50.8203 33.9883C49.9897 33.9883 49.3164 34.6616 49.3164 35.4922C49.3164 36.3228 49.9897 36.9961 50.8203 36.9961Z" fill="#054815"/>
<path d="M51.0786 41.9362C50.2576 41.8142 49.4923 42.3819 49.3706 43.2035C48.9596 45.979 46.6135 48.2808 43.095 49.3613C39.3342 50.5161 34.114 50.129 30.9294 46.6611C30.3676 46.0494 29.4162 46.009 28.8046 46.5706C28.1928 47.1325 28.1523 48.0838 28.714 48.6955C30.5575 50.703 33.0614 52.0713 35.9549 52.6523C36.9766 52.8574 38.0366 52.9592 39.1035 52.9592C40.7515 52.9592 42.4157 52.7163 43.9779 52.2366C48.6325 50.8074 51.7608 47.5954 52.346 43.6442C52.4676 42.8226 51.9002 42.0578 51.0786 41.9362Z" fill="#054815"/>
<path d="M71.9816 28.636C69.2481 25.4671 65.4754 23.4125 60.9342 22.5873C65.282 19.6532 69.0322 16.7332 71.7061 14.1853C75.783 10.3006 77.1501 7.57066 76.0086 5.59468C74.7384 3.39387 71.0718 3.40905 64.4687 5.64296C58.8897 7.53036 51.9395 10.8084 44.8988 14.8735C43.6826 15.5755 42.4778 16.2944 41.2991 17.0188C40.4249 14.5498 41.0014 11.7296 42.9304 9.28406C44.3752 7.45231 44.6978 5.12576 43.7724 3.21204C42.8024 1.20628 40.6735 0.00541406 38.0739 0H38.0033C28.8285 0 19.8546 3.62005 12.7346 10.1933C5.60581 16.7747 1.24148 25.4871 0.445611 34.7255C-0.511926 45.8514 3.04451 56.429 10.4595 64.5096C17.7435 72.4475 28.0701 77 38.7913 77C44.5633 77 49.9819 75.944 54.8962 73.8609C59.3899 71.9562 63.3803 69.2365 66.7569 65.7771C69.8876 62.5694 72.3559 58.8769 74.0934 54.8017C75.7468 50.9241 76.65 46.8148 76.706 42.9183C76.7874 37.2519 75.1537 32.3132 71.9816 28.636ZM41.4749 20.4513C43.0666 19.4475 44.7244 18.4472 46.4026 17.4784C52.9124 13.7198 59.3948 10.624 64.6559 8.76116C70.4475 6.71058 72.8187 6.84443 73.3715 7.10912C73.3237 7.45907 72.8891 9.01607 69.0886 12.516C65.915 15.4385 61.2807 18.8754 56.0395 22.1934C54.3826 23.2427 52.6582 24.2855 50.9144 25.2925C48.5105 26.68 46.1083 27.9775 43.7506 29.1654C43.2802 27.7925 42.6773 26.4602 41.9435 25.1891C41.2323 23.9572 40.4074 22.8007 39.4854 21.7307C40.1379 21.303 40.8019 20.8753 41.4749 20.4513ZM41.0258 30.4995C36.7792 32.5134 32.8826 34.0487 29.7709 34.9394C29.6089 34.1614 29.3241 33.4094 28.92 32.7089C28.5369 32.0449 28.0564 31.4513 27.501 30.9394C29.8306 28.6912 33.1094 26.0865 36.9702 23.4217C37.8666 24.4234 38.6612 25.5192 39.3387 26.6927C40.0394 27.9063 40.6034 29.1828 41.0258 30.4995ZM73.6985 42.8752C73.484 57.8402 60.0772 73.9922 38.7913 73.9922C28.9103 73.9922 19.3917 69.7948 12.6758 62.4762C5.83711 55.0237 2.55815 45.2599 3.44245 34.9836C4.96124 17.3521 20.4652 3.00781 38.0033 3.00781H38.0708C39.5096 3.01082 40.6008 3.56245 41.0645 4.52149C41.4908 5.40308 41.3055 6.4871 40.5686 7.42133C37.8581 10.8578 37.1784 15.0842 38.7098 18.6477C37.9036 19.1671 37.1111 19.6888 36.3455 20.2063C36.3419 20.2087 36.3383 20.2111 36.3348 20.2136C31.5526 23.4405 27.5143 26.6503 24.8274 29.3514C22.7896 28.655 20.5506 28.858 18.6475 29.9565C15.523 31.7613 11.4204 40.1719 10.6298 41.8396C10.418 42.2859 10.4392 42.8079 10.6862 43.2358C10.9333 43.6637 11.3746 43.9429 11.867 43.9829C12.6982 44.0503 15.0586 44.2206 17.6858 44.2206C20.8738 44.2206 24.4543 43.9697 26.1672 42.9803C28.0227 41.9092 29.3089 40.1196 29.7543 38.0622C33.4424 37.0942 38.261 35.2003 43.4799 32.6576C46.4039 31.2345 49.4111 29.633 52.4184 27.8975C53.9438 27.0165 55.4519 26.1083 56.9176 25.1922C56.9265 25.1927 56.935 25.194 56.9439 25.1943C69.4788 25.5538 73.8177 34.5634 73.6985 42.8752ZM26.912 36.751C26.8157 38.2634 25.9753 39.6182 24.6633 40.3755C23.2411 41.1971 18.3552 41.3078 14.3435 41.1243C16.1896 37.5595 18.728 33.3837 20.1517 32.5614C21.4959 31.7854 23.1211 31.7514 24.4998 32.4707C25.2577 32.8653 25.8851 33.4673 26.3146 34.2119C26.7614 34.9864 26.9679 35.8644 26.912 36.751Z" fill="#054815"/>
<path d="M26.7578 9.30017C23.4408 9.30017 20.7422 11.9988 20.7422 15.3158C20.7422 18.6328 23.4408 21.3314 26.7578 21.3314C30.0748 21.3314 32.7734 18.6328 32.7734 15.3158C32.7734 11.9988 30.0748 9.30017 26.7578 9.30017ZM26.7578 18.3236C25.0993 18.3236 23.75 16.9743 23.75 15.3158C23.75 13.6573 25.0993 12.308 26.7578 12.308C28.4163 12.308 29.7656 13.6573 29.7656 15.3158C29.7656 16.9743 28.4163 18.3236 26.7578 18.3236Z" fill="#054815"/>
<path d="M19.2388 49.7117C15.9218 49.7117 13.2231 52.4103 13.2231 55.7273C13.2231 59.0443 15.9218 61.7429 19.2388 61.7429C22.5558 61.7429 25.2544 59.0443 25.2544 55.7273C25.2544 52.4103 22.5558 49.7117 19.2388 49.7117ZM19.2388 58.7351C17.5803 58.7351 16.231 57.3858 16.231 55.7273C16.231 54.0688 17.5803 52.7195 19.2388 52.7195C20.8973 52.7195 22.2466 54.0688 22.2466 55.7273C22.2466 57.3858 20.8973 58.7351 19.2388 58.7351Z" fill="#054815"/>
<path d="M34.2778 58.735C30.9608 58.735 28.2622 61.4336 28.2622 64.7506C28.2622 68.0676 30.9608 70.7662 34.2778 70.7662C37.5948 70.7662 40.2935 68.0676 40.2935 64.7506C40.2935 61.4336 37.5948 58.735 34.2778 58.735ZM34.2778 67.7584C32.6193 67.7584 31.27 66.4091 31.27 64.7506C31.27 63.0921 32.6193 61.7428 34.2778 61.7428C35.9363 61.7428 37.2856 63.0921 37.2856 64.7506C37.2856 66.4091 35.9363 67.7584 34.2778 67.7584Z" fill="#054815"/>
<path d="M52.3242 55.7273C49.0072 55.7273 46.3086 58.4259 46.3086 61.7429C46.3086 65.0599 49.0072 67.7585 52.3242 67.7585C55.6412 67.7585 58.3398 65.0599 58.3398 61.7429C58.3398 58.4259 55.6412 55.7273 52.3242 55.7273ZM52.3242 64.7507C50.6657 64.7507 49.3164 63.4014 49.3164 61.7429C49.3164 60.0844 50.6657 58.7351 52.3242 58.7351C53.9827 58.7351 55.332 60.0844 55.332 61.7429C55.332 63.4014 53.9827 64.7507 52.3242 64.7507Z" fill="#054815"/>
<path d="M64.356 40.6882C61.0389 40.6882 58.3403 43.3868 58.3403 46.7039C58.3403 50.0209 61.0389 52.7195 64.356 52.7195C67.673 52.7195 70.3716 50.0209 70.3716 46.7039C70.3716 43.3868 67.673 40.6882 64.356 40.6882ZM64.356 49.7117C62.6974 49.7117 61.3481 48.3624 61.3481 46.7039C61.3481 45.0454 62.6974 43.696 64.356 43.696C66.0145 43.696 67.3638 45.0454 67.3638 46.7039C67.3638 48.3624 66.0145 49.7117 64.356 49.7117Z" fill="#054815"/>
</g>
<defs>
<clipPath id="clip0_362_93">
<rect width="77" height="77" fill="white"/>
</clipPath>
</defs>
</svg>
