<svg width="78" height="77" viewBox="0 0 78 77" fill="none" xmlns="http://www.w3.org/2000/svg">
<g clip-path="url(#clip0_362_46)">
<path d="M29.6234 23.3681C33.52 23.3681 36.6995 20.2001 36.6995 16.2929C36.6995 12.3849 33.5306 9.2168 29.6234 9.2168C25.7162 9.2168 22.5474 12.3849 22.5474 16.2929C22.5474 20.2001 25.7162 23.3681 29.6234 23.3681ZM29.6234 12.8561C31.5182 12.8561 33.0602 14.3981 33.0602 16.2929C33.0602 18.1877 31.5182 19.7288 29.6234 19.7288C27.7286 19.7288 26.1875 18.1877 26.1875 16.2929C26.1875 14.3981 27.7286 12.8561 29.6234 12.8561Z" fill="#054815"/>
<path d="M56.9099 70.6628C56.9099 70.6522 56.9099 70.6522 56.9099 70.6415C56.9099 70.6309 56.9099 70.6309 56.9099 70.6203L53.5809 49.9377C53.5597 49.7882 53.5385 49.5849 53.5279 49.3815C52.9709 40.614 51.4828 31.8898 49.0849 23.4433C49.0318 23.2611 49.0204 23.079 49.053 22.8013L50.0699 13.4768C50.3051 11.368 49.8559 9.2805 48.7745 7.45023C47.7038 5.61996 46.0981 4.20703 44.1503 3.37153L36.9345 0.288407C36.9027 0.27779 36.8815 0.267172 36.8496 0.256555C36.8169 0.245938 36.7851 0.23532 36.7532 0.224703C34.3766 -0.503812 31.9574 0.588143 31.0043 2.80391C30.0512 5.0311 30.9725 7.66421 33.0919 8.81007C33.1025 8.81007 33.1131 8.82069 33.1131 8.82069C33.1237 8.82069 33.1237 8.83131 33.1343 8.83131C33.1776 8.85254 33.2201 8.87377 33.2634 8.89501H33.274L40.4571 11.9781C40.6392 12.0533 40.7568 12.246 40.7462 12.4175L39.7285 21.7845C39.7179 21.9233 39.6109 22.0516 39.4615 22.0842L34.4729 23.3363C33.7338 23.529 33.038 23.8606 32.4605 24.3212L24.335 30.7015C21.0812 33.2488 20.4596 37.9915 22.9539 41.2674L29.2378 49.5416L29.2484 49.553L29.2598 49.5636C29.923 50.4089 30.8328 50.9553 31.8178 51.2011L24.8169 69.539C24.8169 69.5496 24.8062 69.5602 24.8062 69.5708C24.8062 69.5814 24.7956 69.5921 24.7956 69.5921C24.3138 70.9731 24.3995 72.4718 25.0202 73.7884C25.6409 75.1164 26.7435 76.1332 28.114 76.6363C28.7673 76.8821 29.4305 76.9997 30.0839 76.9997C32.289 76.9997 34.3439 75.6832 35.2219 73.4993C35.2219 73.4886 35.2219 73.4886 35.2325 73.478C35.2325 73.4674 35.2431 73.4674 35.2431 73.4568L42.8223 53.1605L45.9381 72.4187V72.44V72.4612C46.2051 73.906 47.0186 75.1588 48.229 75.9935C49.1707 76.6469 50.2838 76.9891 51.4183 76.9891C51.718 76.9891 52.0292 76.9679 52.3289 76.9148C55.3148 76.4329 57.3387 73.6814 56.9099 70.6628ZM31.732 37.2744C31.625 37.1348 31.6144 36.9314 31.7753 36.8032L34.2802 34.8439C35.1043 36.942 35.3722 39.3293 35.083 41.6414L31.732 37.2744ZM51.7507 73.3179C50.7118 73.4886 49.7162 72.8034 49.5235 71.7972L45.3059 45.7953C45.3059 45.774 45.2953 45.7634 45.2953 45.7414C45.2847 45.7095 45.2847 45.667 45.2741 45.6344C45.2635 45.6025 45.2635 45.5813 45.2528 45.5494C45.2422 45.5168 45.2308 45.4955 45.2202 45.4637C45.2096 45.431 45.1989 45.3992 45.1883 45.3673C45.1777 45.3453 45.1671 45.324 45.1565 45.2922C45.1459 45.2603 45.1238 45.2276 45.1132 45.2064C45.1026 45.1852 45.0919 45.1639 45.0813 45.1419C45.0601 45.11 45.0495 45.0888 45.0274 45.057C45.0168 45.0349 44.9956 45.0137 44.985 44.9924C44.9637 44.9712 44.9531 44.95 44.9311 44.9279C44.9098 44.9067 44.8886 44.8748 44.8673 44.8536C44.8461 44.8315 44.8355 44.8209 44.8134 44.7997C44.7922 44.7785 44.7604 44.7458 44.7391 44.7245C44.7277 44.7139 44.7065 44.6927 44.6958 44.6821C44.664 44.6608 44.6428 44.6282 44.6101 44.6069C44.5888 44.5963 44.5782 44.5857 44.557 44.5751C44.5243 44.5539 44.4925 44.5318 44.4606 44.5106C44.4394 44.5 44.4173 44.4893 44.3961 44.4787C44.3643 44.4681 44.343 44.446 44.3103 44.4354C44.2785 44.4248 44.2466 44.4142 44.2246 44.393C44.2034 44.3823 44.1927 44.3717 44.1715 44.3717C44.1609 44.3717 44.1609 44.3717 44.1503 44.3717C44.1176 44.3611 44.0857 44.3505 44.0433 44.3391C44.0212 44.3284 44 44.3284 43.9681 44.3178C43.9363 44.3072 43.9036 44.3072 43.8718 44.2966C43.8399 44.286 43.8179 44.286 43.786 44.2754C43.7648 44.2754 43.7435 44.2754 43.7109 44.2647C43.679 44.2647 43.6366 44.2541 43.6039 44.2541C43.5826 44.2541 43.572 44.2541 43.5508 44.2541C43.5075 44.2541 43.465 44.2541 43.4218 44.2541C43.4111 44.2541 43.3899 44.2541 43.3793 44.2541C43.3368 44.2541 43.2935 44.2647 43.2404 44.2647H43.229C43.2184 44.2647 43.1972 44.2754 43.1865 44.2754C43.1441 44.286 43.1114 44.286 43.0689 44.2966C43.0477 44.3072 43.015 44.3072 42.9938 44.3178C42.9619 44.3284 42.9293 44.3391 42.908 44.3505C42.8762 44.3611 42.8443 44.3717 42.8223 44.3823C42.801 44.393 42.7692 44.4036 42.748 44.4142C42.7153 44.4248 42.6834 44.446 42.6622 44.4575C42.641 44.4681 42.6189 44.4787 42.5977 44.4893C42.5658 44.5106 42.5446 44.5212 42.5119 44.5424C42.4907 44.5539 42.4695 44.5751 42.4482 44.5857C42.4262 44.6069 42.4049 44.6176 42.3837 44.6388C42.3625 44.6608 42.3412 44.6821 42.3086 44.7033C42.2873 44.7245 42.2767 44.7352 42.2555 44.7572C42.2334 44.7785 42.2016 44.8103 42.1803 44.8315C42.1697 44.8536 42.1485 44.8642 42.1379 44.8854C42.1158 44.9173 42.0946 44.9385 42.0733 44.9712C42.0627 44.9924 42.0415 45.0137 42.0301 45.0349C42.0088 45.0676 41.9876 45.0888 41.977 45.1207C41.9664 45.1419 41.9451 45.1746 41.9337 45.1958C41.9231 45.217 41.9018 45.2497 41.8912 45.2709C41.87 45.3028 41.8594 45.3346 41.8487 45.3779C41.8381 45.3885 41.8381 45.4098 41.8267 45.4204L31.8611 72.119C31.465 73.0925 30.3942 73.5638 29.4093 73.1995C28.4349 72.8361 27.9212 71.7441 28.2528 70.7592L37.1379 47.4973C38.3483 45.0031 38.9478 42.156 38.8514 39.2656C38.755 36.2788 37.9407 33.4416 36.4853 31.0763C36.4853 31.0763 36.4853 31.0763 36.4853 31.0649C36.4641 31.033 36.4535 31.0118 36.4314 30.9906C36.4102 30.9693 36.3996 30.9367 36.3784 30.9154C36.3784 30.9154 36.3784 30.9154 36.3784 30.9048C36.3677 30.8942 36.3571 30.873 36.3351 30.8615C36.3138 30.8297 36.282 30.7978 36.2607 30.7766C36.2501 30.7545 36.2281 30.7439 36.2175 30.7333C36.1856 30.7121 36.1644 30.6802 36.1317 30.6582C36.1105 30.6369 36.0892 30.6263 36.068 30.6157C36.0468 30.5945 36.0141 30.5732 35.9929 30.5512C35.9716 30.5299 35.939 30.5193 35.9177 30.5087C35.8965 30.4981 35.8646 30.4769 35.8426 30.4654C35.8107 30.4548 35.7895 30.4336 35.7576 30.423C35.7356 30.4123 35.7144 30.4017 35.6825 30.3911C35.6507 30.3805 35.618 30.3699 35.5968 30.3584C35.5755 30.3478 35.5428 30.3372 35.5216 30.3266C35.4898 30.316 35.4685 30.3053 35.4359 30.3053C35.404 30.2947 35.3828 30.2947 35.3509 30.2841C35.3183 30.2735 35.297 30.2735 35.2652 30.2735C35.2325 30.2621 35.2006 30.2621 35.1794 30.2621C35.1582 30.2621 35.1255 30.2621 35.1043 30.2514C35.0724 30.2514 35.0397 30.2408 35.0079 30.2408C34.9867 30.2408 34.9548 30.2408 34.9328 30.2408C34.9009 30.2408 34.8691 30.2408 34.8258 30.2408C34.8045 30.2408 34.7727 30.2408 34.7514 30.2514C34.7188 30.2514 34.6869 30.2621 34.6551 30.2621C34.633 30.2621 34.6012 30.2735 34.5799 30.2735C34.5481 30.2841 34.5154 30.2841 34.4836 30.2947C34.4517 30.3053 34.419 30.316 34.3978 30.3266C34.3766 30.3372 34.3439 30.3372 34.3227 30.3478C34.2908 30.3584 34.259 30.3805 34.2157 30.3911C34.1944 30.4017 34.1732 30.4123 34.152 30.423C34.1193 30.4442 34.0768 30.4548 34.0442 30.4769C34.0229 30.4875 34.0123 30.4981 33.9911 30.5087C33.9911 30.5087 33.9911 30.5087 33.9805 30.5087C33.9486 30.5299 33.9266 30.5406 33.9053 30.5618C33.8841 30.5838 33.8522 30.5945 33.8302 30.6157C33.8302 30.6157 33.8302 30.6157 33.8196 30.6157L29.5596 33.9447C27.8355 35.2939 27.5357 37.7236 28.8743 39.4796L33.7338 45.8492C33.7983 45.9341 33.8089 46.0411 33.7665 46.1701L33.7559 46.1808L33.1882 47.6582C32.8027 47.7431 32.3854 47.6149 32.1494 47.3152L25.877 39.0622C24.5816 37.3602 24.9132 34.8978 26.6047 33.5706L34.7188 27.201C34.9009 27.0613 35.1361 26.9437 35.3828 26.88L40.3713 25.6272C41.977 25.2204 43.1759 23.8394 43.358 22.2018L44.3749 12.8349C44.5676 11.0789 43.5508 9.36626 41.9018 8.65979L34.7939 5.59791C34.3333 5.32022 34.1299 4.73137 34.3439 4.22827C34.5799 3.68188 35.1361 3.55366 35.6074 3.67126L42.7153 6.71192C45.2422 7.79244 46.7515 10.3512 46.4518 13.0701L45.435 22.3946C45.3492 23.1435 45.4023 23.7863 45.5844 24.4176C47.9072 32.6175 49.3634 41.0852 49.8983 49.5849C49.9196 49.9058 49.9523 50.2268 49.9947 50.4947L53.3131 71.1446C53.4527 72.2039 52.7675 73.157 51.7507 73.3179Z" fill="#054815"/>
</g>
<defs>
<clipPath id="clip0_362_46">
<rect width="77" height="77" fill="white" transform="translate(0.666504 0.00012207)"/>
</clipPath>
</defs>
</svg>
