<svg width="77" height="77" viewBox="0 0 77 77" fill="none" xmlns="http://www.w3.org/2000/svg">
<g clip-path="url(#clip0_362_49)">
<path d="M75.3954 18.2916H70.8133V14.8437C70.8133 14.2011 70.43 13.6206 69.8389 13.3683C60.1619 9.23733 48.2559 10.9881 38.4994 17.9081C28.7431 10.9881 16.8368 9.23782 7.16015 13.3683C6.56907 13.6206 6.18571 14.2011 6.18571 14.8437V18.2916H1.60365C0.717841 18.2916 -0.000488281 19.0098 -0.000488281 19.8958V64.2355C-0.000488281 65.1215 0.717841 65.8397 1.60365 65.8397H38.4996H75.3954C76.2813 65.8397 76.9995 65.1213 76.9995 64.2355V19.8959C76.9995 19.01 76.2813 18.2916 75.3954 18.2916ZM3.2078 62.6314V21.5001H6.18571V59.1834C6.18571 59.7224 6.45633 60.225 6.90583 60.522C7.3555 60.8189 7.92394 60.87 8.41955 60.6587C15.9336 57.4511 25.0078 58.2533 33.0617 62.6314H3.2078ZM36.8955 61.1683C31.0406 57.4374 24.5278 55.5002 18.2411 55.5002C15.206 55.5002 12.224 55.9517 9.39416 56.8709V19.9145C9.39416 19.9082 9.39514 19.9021 9.39514 19.8959C9.39514 19.8897 9.39432 19.8836 9.39416 19.8774V15.9288C17.9504 12.7218 28.3254 14.5152 36.8955 20.7049V61.1683ZM40.1037 20.7049C48.6737 14.5151 59.0493 12.7218 67.605 15.9288V19.8772C67.605 19.8834 67.604 19.8896 67.604 19.8958C67.604 19.902 67.6049 19.9082 67.605 19.9143V56.8706C58.9134 54.0473 48.7849 55.6363 40.1037 61.1682V20.7049ZM73.7912 62.6314H43.9372C51.9913 58.2533 61.0653 57.4512 68.5795 60.6587C69.0751 60.8705 69.644 60.819 70.0932 60.522C70.5429 60.225 70.8133 59.7222 70.8133 59.1834V21.5001H73.7912V62.6314Z" fill="#054815"/>
</g>
<defs>
<clipPath id="clip0_362_49">
<rect width="77" height="77" fill="white"/>
</clipPath>
</defs>
</svg>
