<svg width="78" height="77" viewBox="0 0 78 77" fill="none" xmlns="http://www.w3.org/2000/svg">
<g clip-path="url(#clip0_362_89)">
<path d="M77.333 25.0928V16.0916C77.333 15.3334 76.9521 14.6258 76.3191 14.2084C75.6858 13.791 74.8856 13.7195 74.1885 14.0182L42.6065 27.5534C41.7771 27.9089 41.2393 28.7244 41.2393 29.6268V60.7417C39.3001 59.5834 36.9406 58.953 34.4717 58.953C31.5765 58.953 28.8298 59.8171 26.7377 61.3863C24.4847 63.0761 23.1924 65.4781 23.1924 67.9764C23.1924 70.4747 24.4847 72.8767 26.7377 74.5665C28.8298 76.1357 31.5765 76.9998 34.4717 76.9998C37.3668 76.9998 40.1136 76.1357 42.2057 74.5665C44.4587 72.8767 45.751 70.4747 45.751 67.9764V40.1377L72.8213 28.5362V47.2066C70.8822 46.0482 68.5227 45.4178 66.0537 45.4178C63.1585 45.4178 60.4118 46.2819 58.3197 47.8511C56.0667 49.5409 54.7744 51.943 54.7744 54.4412C54.7744 56.9395 56.0667 59.3416 58.3197 61.0314C60.4118 62.6005 63.1585 63.4647 66.0537 63.4647C68.9489 63.4647 71.6956 62.6005 73.7877 61.0314C76.0407 59.3416 77.333 56.9395 77.333 54.4412C77.333 54.4412 77.333 25.1006 77.333 25.0928ZM34.4717 72.4881C30.8032 72.4881 27.7041 70.4221 27.7041 67.9764C27.7041 65.5307 30.8032 63.4647 34.4717 63.4647C38.1402 63.4647 41.2393 65.5307 41.2393 67.9764C41.2393 70.4221 38.1402 72.4881 34.4717 72.4881ZM45.751 35.2291V31.1143L72.8213 19.5127V23.6276L45.751 35.2291ZM66.0537 58.953C62.3852 58.953 59.2861 56.8869 59.2861 54.4412C59.2861 51.9956 62.3852 49.9295 66.0537 49.9295C69.7222 49.9295 72.8213 51.9956 72.8213 54.4412C72.8213 56.8869 69.7222 58.953 66.0537 58.953Z" fill="#054815"/>
<path d="M31.9155 24.8142C31.9155 27.7244 29.1335 31.1652 28.0646 32.2426C27.1836 33.1236 27.1836 34.5519 28.0646 35.4328C28.9455 36.3138 30.3739 36.314 31.2549 35.4328C31.7844 34.9035 36.4274 30.1075 36.4274 24.8144C36.4274 20.5732 33.9987 15.1844 29.2086 8.79776C25.77 4.2131 22.3781 0.807208 22.2319 0.661028C20.8242 -0.74753 18.3804 0.240686 18.3804 2.25562V33.3705C16.4412 32.2122 14.0818 31.5818 11.6128 31.5818C8.71762 31.5818 5.97089 32.4459 3.8788 34.0151C1.6258 35.7049 0.333496 38.1069 0.333496 40.6052C0.333496 43.1035 1.6258 45.5056 3.8788 47.1953C5.97089 48.7645 8.71762 49.6287 11.6128 49.6287C14.508 49.6287 17.2547 48.7645 19.3468 47.1953C21.5998 45.5056 22.8921 43.1035 22.8921 40.6052V8.09619C26.9603 12.9383 31.9155 19.9772 31.9155 24.8142ZM11.6128 45.1169C7.94431 45.1169 4.84521 43.0509 4.84521 40.6052C4.84521 38.1596 7.94431 36.0935 11.6128 36.0935C15.2813 36.0935 18.3804 38.1596 18.3804 40.6052C18.3804 43.0509 15.2813 45.1169 11.6128 45.1169Z" fill="#054815"/>
</g>
<defs>
<clipPath id="clip0_362_89">
<rect width="77" height="77" fill="white" transform="translate(0.333496)"/>
</clipPath>
</defs>
</svg>
