<svg width="78" height="77" viewBox="0 0 78 77" fill="none" xmlns="http://www.w3.org/2000/svg">
<g clip-path="url(#clip0_362_68)">
<path d="M6.28545 29.3243C5.53335 27.6722 5.14493 25.8778 5.14649 24.0626C5.14971 20.9781 6.26374 17.998 8.28464 15.6678C10.3055 13.3376 13.0981 11.8132 16.1511 11.3736C16.7565 11.2827 17.3676 11.2344 17.9798 11.2293C19.2235 11.2268 20.461 11.4051 21.6534 11.7586L20.739 14.8386C19.8443 14.5688 18.9144 14.4336 17.9798 14.4376C17.5231 14.4396 17.0672 14.4771 16.6163 14.5499C15.1423 14.7625 13.7377 15.3142 12.5131 16.1616C11.2884 17.009 10.2771 18.1291 9.55878 19.4337C8.84042 20.7382 8.43459 22.1917 8.3732 23.6796C8.31182 25.1676 8.59656 26.6496 9.20503 28.0089L6.28545 29.3243Z" fill="#054815"/>
<path d="M6.9754 49.7293C4.96954 48.6195 3.29756 46.9926 2.1333 45.0178C0.969032 43.0431 0.35498 40.7925 0.35498 38.5001C0.35498 36.2077 0.969032 33.9571 2.1333 31.9824C3.29756 30.0076 4.96954 28.3807 6.9754 27.2709C8.86831 26.2155 11.0002 25.6632 13.1675 25.6668V28.8751C11.0343 28.8768 8.96214 29.5871 7.27649 30.8944C5.59085 32.2016 4.38724 34.0319 3.85477 36.0975C3.32229 38.1632 3.49111 40.3472 4.33471 42.3065C5.1783 44.2657 6.64888 45.8893 8.5154 46.922L6.9754 49.7293Z" fill="#054815"/>
<path d="M16.1511 65.6265C13.0981 65.187 10.3055 63.6626 8.28464 61.3324C6.26374 59.0022 5.14971 56.022 5.14649 52.9376C5.14493 51.1224 5.53335 49.328 6.28545 47.6759C7.29871 45.4218 8.94126 43.5082 11.0158 42.1651C13.0903 40.8219 15.5085 40.1063 17.9798 40.1042V43.3126C15.5628 43.3375 13.2435 44.2709 11.4831 45.9273C9.72274 47.5838 8.65004 49.842 8.47825 52.253C8.30647 54.6641 9.04817 57.0516 10.5559 58.9409C12.0637 60.8302 14.2272 62.083 16.6163 62.4503L16.1511 65.6265Z" fill="#054815"/>
<path d="M27.6048 77.0002C24.2012 77.0002 20.937 75.6481 18.5303 73.2414C16.1236 70.8346 14.7715 67.5704 14.7715 64.1668V63.9904C14.8179 60.6174 16.1904 57.3984 18.5921 55.0297C20.9938 52.661 24.2316 51.3332 27.6048 51.3335V54.5418C25.0714 54.5417 22.6402 55.5403 20.8383 57.3211C19.0365 59.1019 18.0094 61.5213 17.9798 64.0545V64.1668C17.9798 66.7195 18.9939 69.1677 20.7989 70.9727C22.604 72.7778 25.0521 73.7918 27.6048 73.7918C30.1575 73.7918 32.6057 72.7778 34.4107 70.9727C36.2158 69.1677 37.2298 66.7195 37.2298 64.1668V60.9585H40.4382V64.1668C40.4382 67.5704 39.0861 70.8346 36.6794 73.2414C34.2726 75.6481 31.0084 77.0002 27.6048 77.0002Z" fill="#054815"/>
<path d="M40.4382 16.0418H37.2298V12.8335C37.2298 10.2807 36.2158 7.83259 34.4107 6.02755C32.6057 4.22252 30.1575 3.20846 27.6048 3.20846C25.0521 3.20846 22.604 4.22252 20.7989 6.02755C18.9939 7.83259 17.9798 10.2807 17.9798 12.8335L14.7715 12.9618V12.8335C14.7715 9.42984 16.1236 6.16564 18.5303 3.75892C20.937 1.3522 24.2012 0.00012207 27.6048 0.00012207C31.0084 0.00012207 34.2726 1.3522 36.6794 3.75892C39.0861 6.16564 40.4382 9.42984 40.4382 12.8335V16.0418Z" fill="#054815"/>
<path d="M59.6887 65.771C58.445 65.7735 57.2075 65.5952 56.0151 65.2416L56.9295 62.1617C57.824 62.4327 58.7541 62.5679 59.6887 62.5627C60.1454 62.5607 60.6013 62.5232 61.0522 62.4504C62.5262 62.2378 63.9308 61.6861 65.1554 60.8387C66.3801 59.9913 67.3914 58.8712 68.1097 57.5667C68.8281 56.2621 69.2339 54.8087 69.2953 53.3207C69.3567 51.8327 69.0719 50.3507 68.4635 48.9914L71.3831 47.676C72.1352 49.3281 72.5236 51.1225 72.522 52.9377C72.5188 56.0222 71.4048 59.0023 69.3839 61.3325C67.363 63.6627 64.5704 65.1871 61.5174 65.6267C60.912 65.7176 60.3009 65.7659 59.6887 65.771Z" fill="#054815"/>
<path d="M64.501 51.3335V48.1252C66.6341 48.1235 68.7063 47.4132 70.392 46.1059C72.0776 44.7986 73.2812 42.9684 73.8137 40.9027C74.3462 38.8371 74.1774 36.6531 73.3338 34.6938C72.4902 32.7345 71.0196 31.111 69.1531 30.0783L70.7572 27.271C72.7631 28.3808 74.4351 30.0077 75.5993 31.9824C76.7636 33.9572 77.3776 36.2077 77.3776 38.5002C77.3776 40.7926 76.7636 43.0432 75.5993 45.0179C74.4351 46.9927 72.7631 48.6195 70.7572 49.7293C68.8454 50.7954 66.6899 51.3481 64.501 51.3335Z" fill="#054815"/>
<path d="M59.688 36.8959V33.6876C62.1051 33.6627 64.4243 32.7293 66.1847 31.0728C67.9451 29.4164 69.0178 27.1582 69.1896 24.7471C69.3613 22.3361 68.6196 19.9486 67.1119 18.0593C65.6041 16.17 63.4406 14.9172 61.0515 14.5499L61.5167 11.3416C64.5752 11.7819 67.3721 13.3109 69.3937 15.6478C71.4153 17.9848 72.5258 20.9726 72.5213 24.0626C72.5229 25.8778 72.1345 27.6722 71.3824 29.3243C70.3691 31.5784 68.7266 33.4919 66.6521 34.8351C64.5776 36.1783 62.1593 36.8939 59.688 36.8959Z" fill="#054815"/>
<path d="M50.0633 77.0001C46.6597 77.0001 43.3955 75.648 40.9888 73.2413C38.5821 70.8346 37.23 67.5704 37.23 64.1668H40.4383C40.4383 66.7195 41.4524 69.1677 43.2574 70.9727C45.0624 72.7777 47.5106 73.7918 50.0633 73.7918C52.616 73.7918 55.0642 72.7777 56.8692 70.9727C58.6743 69.1677 59.6883 66.7195 59.6883 64.1668L62.8966 64.0385C62.9136 65.7345 62.5942 67.4171 61.9568 68.989C61.3195 70.5608 60.3769 71.9908 59.1835 73.1961C57.9901 74.4014 56.5697 75.3582 55.0042 76.0111C53.4388 76.6641 51.7595 77.0002 50.0633 77.0001Z" fill="#054815"/>
<path d="M37.23 52.9376H40.4383V64.1668H37.23V52.9376Z" fill="#054815"/>
<path d="M30.8135 28.8751H27.6051C27.6051 27.1733 26.9291 25.5412 25.7257 24.3379C24.5224 23.1345 22.8903 22.4585 21.1885 22.4585V19.2501C23.7412 19.2501 26.1893 20.2642 27.9944 22.0692C29.7994 23.8743 30.8135 26.3224 30.8135 28.8751Z" fill="#054815"/>
<path d="M50.0633 43.3126H46.855C46.855 40.7599 47.869 38.3118 49.6741 36.5067C51.4791 34.7017 53.9273 33.6876 56.48 33.6876V36.896C54.7782 36.896 53.1461 37.572 51.9427 38.7754C50.7394 39.9787 50.0633 41.6108 50.0633 43.3126Z" fill="#054815"/>
<path d="M21.1885 43.3126V40.1043C22.8903 40.1043 24.5224 39.4282 25.7257 38.2249C26.9291 37.0215 27.6051 35.3894 27.6051 33.6876C27.6051 33.2622 27.7742 32.8541 28.075 32.5533C28.3758 32.2525 28.7839 32.0835 29.2093 32.0835H37.2301V12.8335C37.2301 9.42984 38.5822 6.16564 40.9889 3.75892C43.3957 1.3522 46.6599 0.00012207 50.0635 0.00012207C53.4671 0.00012207 56.7313 1.3522 59.138 3.75892C61.5447 6.16564 62.8968 9.42984 62.8968 12.8335V13.0099C62.8504 16.3829 61.4779 19.6019 59.0762 21.9706C56.6745 24.3393 53.4367 25.6671 50.0635 25.6668V22.4585C52.5968 22.4586 55.0281 21.46 56.83 19.6792C58.6318 17.8984 59.6589 15.4789 59.6885 12.9457V12.8335C59.6885 10.2807 58.6744 7.83259 56.8694 6.02755C55.0643 4.22252 52.6162 3.20846 50.0635 3.20846C47.5108 3.20846 45.0626 4.22252 43.2576 6.02755C41.4525 7.83259 40.4385 10.2807 40.4385 12.8335V33.6876C40.4385 34.1131 40.2695 34.5211 39.9686 34.8219C39.6678 35.1228 39.2598 35.2918 38.8343 35.2918H30.6851C30.3059 37.5356 29.1438 39.5725 27.4053 41.0409C25.6667 42.5092 23.4641 43.3141 21.1885 43.3126Z" fill="#054815"/>
<path d="M56.48 57.7502C54.2043 57.7517 52.0017 56.9469 50.2632 55.4785C48.5246 54.0101 47.3626 51.9732 46.9833 49.7294H38.8341C38.4087 49.7294 38.0007 49.5604 37.6998 49.2596C37.399 48.9587 37.23 48.5507 37.23 48.1252V38.5002H40.4383V46.5211H48.4591C48.8846 46.5211 49.2926 46.6901 49.5935 46.9909C49.8943 47.2918 50.0633 47.6998 50.0633 48.1252C50.0633 49.8271 50.7394 51.4592 51.9427 52.6625C53.1461 53.8659 54.7782 54.5419 56.48 54.5419V57.7502Z" fill="#054815"/>
</g>
<defs>
<clipPath id="clip0_362_68">
<rect width="77" height="77" fill="white" transform="translate(0.333496 0.00012207)"/>
</clipPath>
</defs>
</svg>
