<svg width="78" height="77" viewBox="0 0 78 77" fill="none" xmlns="http://www.w3.org/2000/svg">
<g clip-path="url(#clip0_362_85)">
<path d="M24.1279 49.0273C24.9585 49.0273 25.6318 48.354 25.6318 47.5234C25.6318 46.6929 24.9585 46.0195 24.1279 46.0195C23.2973 46.0195 22.624 46.6929 22.624 47.5234C22.624 48.354 23.2973 49.0273 24.1279 49.0273Z" fill="#054815"/>
<path d="M5.1782 49.0273H6.72587C7.58971 64.3003 21.0134 76.9998 36.1586 76.9998H42.1742C57.3476 76.9998 70.7446 64.2707 71.6068 49.0273H73.1545C75.6423 49.0273 77.6662 47.0033 77.6662 44.5156C77.6662 42.0278 75.6423 40.0039 73.1545 40.0039H70.7483C70.7483 35.9931 68.11 32.5095 64.3484 31.37C63.2405 27.6054 59.7978 24.9649 55.8145 24.9649H54.2054C53.5078 24.9649 52.9019 25.4445 52.7418 26.1235C52.5816 26.8025 52.9091 27.5022 53.5331 27.8142C54.5741 28.3344 54.5514 29.1677 54.4449 29.6181C54.2902 30.2742 53.7226 30.9806 52.843 30.9806H42.1743C40.5459 30.9806 38.9653 31.3653 37.545 32.064C39.2047 26.9303 40.46 22.2879 40.8202 20.9296L44.4766 17.2742L45.5399 18.3375C46.1273 18.9247 47.0793 18.9247 47.6668 18.3375L58.3009 7.70339C60.0597 5.94443 60.0597 3.08251 58.3015 1.3243C56.5393 -0.44038 53.6841 -0.442184 51.9206 1.3234L41.2865 11.9575C40.6993 12.5447 40.6993 13.497 41.2865 14.0843L42.3495 15.1472L38.6941 18.8016C37.2797 19.1768 32.291 20.5261 26.9399 22.2786C18.32 25.1016 12.8759 27.6063 10.7589 29.7232C8.02765 32.4546 6.61533 36.1979 6.81355 40.004H5.1782C2.69045 40.004 0.666504 42.028 0.666504 44.5157C0.666504 47.0035 2.69045 49.0273 5.1782 49.0273ZM54.0482 3.44976C54.6343 2.86294 55.5838 2.85963 56.1738 3.45036C56.7599 4.03658 56.7599 4.99036 56.1738 5.57658L46.6031 15.1472L44.4768 13.021L54.0482 3.44976ZM64.706 34.7772C66.5385 35.8233 67.7405 37.7934 67.7405 40.0039H62.4924C63.7509 38.5806 64.5547 36.7597 64.706 34.7772ZM73.1545 43.0117C73.9837 43.0117 74.6584 43.6863 74.6584 44.5156C74.6584 45.3448 73.9837 46.0195 73.1545 46.0195H58.7171V43.0117H73.1545ZM42.1742 33.9883H52.8428C54.9985 33.9883 56.8611 32.4752 57.3723 30.3087C57.5457 29.5736 57.544 28.8508 57.3852 28.1776C59.9232 28.8594 61.7247 31.1599 61.7247 34.0935C61.7247 36.937 59.7008 39.3796 56.9122 39.9017C56.5199 39.9751 56.1728 40.2016 55.9475 40.5311C55.7243 40.8578 55.6386 41.259 55.7091 41.6481V59.5546C55.7091 60.3838 55.0345 61.0585 54.2052 61.0585C53.376 61.0585 52.7013 60.3838 52.7013 59.5546V50.5312C52.7013 48.0434 50.6774 46.0195 48.1896 46.0195C45.7019 46.0195 43.6779 48.0434 43.6779 50.5312V53.539C43.6779 54.3682 43.0033 55.0429 42.174 55.0429C41.3447 55.0429 40.6701 54.3682 40.6701 53.539V41.5078C40.6701 40.6772 39.9967 40.0039 39.1662 40.0039H34.7253C34.9595 39.413 35.1392 38.9535 35.4252 38.1876C36.6851 35.6349 39.3271 33.9883 42.1742 33.9883ZM31.4799 40.0039H26.5546C29.4119 36.2246 32.8638 31.593 35.7654 27.6841C34.5721 31.6129 33.0665 36.1797 31.4799 40.0039ZM22.7797 40.0039H15.5265C18.2167 37.8491 25.3144 32.5214 32.2586 27.3612C29.1092 31.5989 25.5144 36.4114 22.7797 40.0039ZM12.8858 31.85C15.416 29.3199 24.5385 26.1096 31.9368 23.8542C24.5203 29.3564 13.5955 37.5166 12.3563 38.757C11.9787 39.1334 11.6594 39.5512 11.398 40.004H9.82601C9.62434 36.989 10.724 34.0117 12.8858 31.85ZM5.1782 43.0117H37.6625V46.0195H30.8949C30.0644 46.0195 29.391 46.6928 29.391 47.5234C29.391 48.354 30.0644 49.0273 30.8949 49.0273H37.6625V53.539C37.6625 56.0267 39.6864 58.0507 42.1742 58.0507C44.6619 58.0507 46.6859 56.0267 46.6859 53.539V50.5312C46.6859 49.7019 47.3605 49.0273 48.1898 49.0273C49.019 49.0273 49.6937 49.7019 49.6937 50.5312V59.5546C49.6937 62.0423 51.7176 64.0663 54.2054 64.0663C56.6931 64.0663 58.7171 62.0423 58.7171 59.5546V49.0258H68.5941C67.7549 62.4912 55.7705 73.992 42.1742 73.992H36.1586C22.5622 73.992 10.5778 62.4912 9.73863 49.0273H17.3596C18.1901 49.0273 18.8635 48.354 18.8635 47.5234C18.8635 46.6928 18.1901 46.0195 17.3596 46.0195H5.1782C4.34895 46.0195 3.6743 45.3448 3.6743 44.5156C3.6743 43.6863 4.34895 43.0117 5.1782 43.0117Z" fill="#054815"/>
</g>
<defs>
<clipPath id="clip0_362_85">
<rect width="77" height="77" fill="white" transform="translate(0.666504)"/>
</clipPath>
</defs>
</svg>
