<svg width="162" height="162" viewBox="0 0 162 162" fill="none" xmlns="http://www.w3.org/2000/svg">
<circle cx="1.22413" cy="76.5376" r="1.22413" transform="rotate(-90 1.22413 76.5376)" fill="black"/>
<circle cx="11.9954" cy="76.5376" r="1.22413" transform="rotate(-90 11.9954 76.5376)" fill="black"/>
<circle cx="22.7691" cy="76.5376" r="1.22413" transform="rotate(-90 22.7691 76.5376)" fill="black"/>
<circle cx="33.5425" cy="76.5376" r="1.22413" transform="rotate(-90 33.5425 76.5376)" fill="black"/>
<circle cx="44.312" cy="76.5376" r="1.22413" transform="rotate(-90 44.312 76.5376)" fill="black"/>
<circle cx="65.1228" cy="76.5376" r="1.22413" transform="rotate(-90 65.1228 76.5376)" fill="black"/>
<circle cx="54.8413" cy="76.5376" r="1.22413" transform="rotate(-90 54.8413 76.5376)" fill="black"/>
<circle cx="1.22413" cy="65.7681" r="1.22413" transform="rotate(-90 1.22413 65.7681)" fill="black"/>
<circle cx="11.9956" cy="65.7681" r="1.22413" transform="rotate(-90 11.9956 65.7681)" fill="black"/>
<circle cx="22.771" cy="65.7681" r="1.22413" transform="rotate(-90 22.771 65.7681)" fill="black"/>
<circle cx="33.5425" cy="65.7681" r="1.22413" transform="rotate(-90 33.5425 65.7681)" fill="black"/>
<circle cx="44.312" cy="65.7681" r="1.22413" transform="rotate(-90 44.312 65.7681)" fill="black"/>
<circle cx="65.1226" cy="65.7681" r="1.22413" transform="rotate(-90 65.1226 65.7681)" fill="black"/>
<circle cx="54.8413" cy="65.7681" r="1.22413" transform="rotate(-90 54.8413 65.7681)" fill="black"/>
<circle cx="1.22413" cy="54.9907" r="1.22413" transform="rotate(-90 1.22413 54.9907)" fill="black"/>
<circle cx="1.22413" cy="22.9204" r="1.22413" transform="rotate(-90 1.22413 22.9204)" fill="black"/>
<circle cx="11.9956" cy="54.9907" r="1.22413" transform="rotate(-90 11.9956 54.9907)" fill="black"/>
<circle cx="11.9956" cy="22.9204" r="1.22413" transform="rotate(-90 11.9956 22.9204)" fill="black"/>
<circle cx="22.771" cy="54.9907" r="1.22413" transform="rotate(-90 22.771 54.9907)" fill="black"/>
<circle cx="22.771" cy="22.9204" r="1.22413" transform="rotate(-90 22.771 22.9204)" fill="black"/>
<circle cx="33.5425" cy="54.9907" r="1.22413" transform="rotate(-90 33.5425 54.9907)" fill="black"/>
<circle cx="33.5425" cy="22.9204" r="1.22413" transform="rotate(-90 33.5425 22.9204)" fill="black"/>
<circle cx="44.312" cy="54.9907" r="1.22413" transform="rotate(-90 44.312 54.9907)" fill="black"/>
<circle cx="44.312" cy="22.9204" r="1.22413" transform="rotate(-90 44.312 22.9204)" fill="black"/>
<circle cx="65.1226" cy="54.9907" r="1.22413" transform="rotate(-90 65.1226 54.9907)" fill="black"/>
<circle cx="65.1226" cy="22.9204" r="1.22413" transform="rotate(-90 65.1226 22.9204)" fill="black"/>
<circle cx="54.8413" cy="54.9907" r="1.22413" transform="rotate(-90 54.8413 54.9907)" fill="black"/>
<circle cx="54.8413" cy="22.9204" r="1.22413" transform="rotate(-90 54.8413 22.9204)" fill="black"/>
<circle cx="1.22413" cy="44.2212" r="1.22413" transform="rotate(-90 1.22413 44.2212)" fill="black"/>
<circle cx="1.22413" cy="12.147" r="1.22413" transform="rotate(-90 1.22413 12.147)" fill="black"/>
<circle cx="11.9956" cy="44.2212" r="1.22413" transform="rotate(-90 11.9956 44.2212)" fill="black"/>
<circle cx="11.9956" cy="12.147" r="1.22413" transform="rotate(-90 11.9956 12.147)" fill="black"/>
<circle cx="22.771" cy="44.2212" r="1.22413" transform="rotate(-90 22.771 44.2212)" fill="black"/>
<circle cx="22.771" cy="12.147" r="1.22413" transform="rotate(-90 22.771 12.147)" fill="black"/>
<circle cx="33.5425" cy="44.2212" r="1.22413" transform="rotate(-90 33.5425 44.2212)" fill="black"/>
<circle cx="33.5425" cy="12.147" r="1.22413" transform="rotate(-90 33.5425 12.147)" fill="black"/>
<circle cx="44.312" cy="44.2212" r="1.22413" transform="rotate(-90 44.312 44.2212)" fill="black"/>
<circle cx="44.312" cy="12.147" r="1.22413" transform="rotate(-90 44.312 12.147)" fill="black"/>
<circle cx="65.1226" cy="44.2212" r="1.22413" transform="rotate(-90 65.1226 44.2212)" fill="black"/>
<circle cx="65.1226" cy="12.147" r="1.22413" transform="rotate(-90 65.1226 12.147)" fill="black"/>
<circle cx="54.8413" cy="44.2212" r="1.22413" transform="rotate(-90 54.8413 44.2212)" fill="black"/>
<circle cx="54.8413" cy="12.147" r="1.22413" transform="rotate(-90 54.8413 12.147)" fill="black"/>
<circle cx="1.22413" cy="33.4477" r="1.22413" transform="rotate(-90 1.22413 33.4477)" fill="black"/>
<circle cx="1.22413" cy="1.37743" r="1.22413" transform="rotate(-90 1.22413 1.37743)" fill="black"/>
<circle cx="11.9956" cy="33.4477" r="1.22413" transform="rotate(-90 11.9956 33.4477)" fill="black"/>
<circle cx="11.9954" cy="1.37743" r="1.22413" transform="rotate(-90 11.9954 1.37743)" fill="black"/>
<circle cx="22.7691" cy="33.4477" r="1.22413" transform="rotate(-90 22.7691 33.4477)" fill="black"/>
<circle cx="22.771" cy="1.37743" r="1.22413" transform="rotate(-90 22.771 1.37743)" fill="black"/>
<circle cx="33.5425" cy="33.4477" r="1.22413" transform="rotate(-90 33.5425 33.4477)" fill="black"/>
<circle cx="33.5425" cy="1.37743" r="1.22413" transform="rotate(-90 33.5425 1.37743)" fill="black"/>
<circle cx="44.312" cy="33.4477" r="1.22413" transform="rotate(-90 44.312 33.4477)" fill="black"/>
<circle cx="44.312" cy="1.37743" r="1.22413" transform="rotate(-90 44.312 1.37743)" fill="black"/>
<circle cx="65.1226" cy="33.4477" r="1.22413" transform="rotate(-90 65.1226 33.4477)" fill="black"/>
<circle cx="65.1228" cy="1.37743" r="1.22413" transform="rotate(-90 65.1228 1.37743)" fill="black"/>
<circle cx="54.8413" cy="33.4477" r="1.22413" transform="rotate(-90 54.8413 33.4477)" fill="black"/>
<circle cx="54.8413" cy="1.37743" r="1.22413" transform="rotate(-90 54.8413 1.37743)" fill="black"/>
<circle cx="96.3062" cy="76.5376" r="1.22413" transform="rotate(-90 96.3062 76.5376)" fill="black"/>
<circle cx="107.077" cy="76.5376" r="1.22413" transform="rotate(-90 107.077 76.5376)" fill="black"/>
<circle cx="117.851" cy="76.5376" r="1.22413" transform="rotate(-90 117.851 76.5376)" fill="black"/>
<circle cx="128.625" cy="76.5376" r="1.22413" transform="rotate(-90 128.625 76.5376)" fill="black"/>
<circle cx="139.394" cy="76.5376" r="1.22413" transform="rotate(-90 139.394 76.5376)" fill="black"/>
<circle cx="160.205" cy="76.5376" r="1.22413" transform="rotate(-90 160.205 76.5376)" fill="black"/>
<circle cx="149.923" cy="76.5376" r="1.22413" transform="rotate(-90 149.923 76.5376)" fill="black"/>
<circle cx="96.3062" cy="65.7681" r="1.22413" transform="rotate(-90 96.3062 65.7681)" fill="black"/>
<circle cx="107.078" cy="65.7681" r="1.22413" transform="rotate(-90 107.078 65.7681)" fill="black"/>
<circle cx="117.853" cy="65.7681" r="1.22413" transform="rotate(-90 117.853 65.7681)" fill="black"/>
<circle cx="128.625" cy="65.7681" r="1.22413" transform="rotate(-90 128.625 65.7681)" fill="black"/>
<circle cx="139.394" cy="65.7681" r="1.22413" transform="rotate(-90 139.394 65.7681)" fill="black"/>
<circle cx="160.205" cy="65.7681" r="1.22413" transform="rotate(-90 160.205 65.7681)" fill="black"/>
<circle cx="149.923" cy="65.7681" r="1.22413" transform="rotate(-90 149.923 65.7681)" fill="black"/>
<circle cx="96.3062" cy="54.9907" r="1.22413" transform="rotate(-90 96.3062 54.9907)" fill="black"/>
<circle cx="96.3062" cy="22.9204" r="1.22413" transform="rotate(-90 96.3062 22.9204)" fill="black"/>
<circle cx="107.078" cy="54.9907" r="1.22413" transform="rotate(-90 107.078 54.9907)" fill="black"/>
<circle cx="107.078" cy="22.9204" r="1.22413" transform="rotate(-90 107.078 22.9204)" fill="black"/>
<circle cx="117.853" cy="54.9907" r="1.22413" transform="rotate(-90 117.853 54.9907)" fill="black"/>
<circle cx="117.853" cy="22.9204" r="1.22413" transform="rotate(-90 117.853 22.9204)" fill="black"/>
<circle cx="128.625" cy="54.9907" r="1.22413" transform="rotate(-90 128.625 54.9907)" fill="black"/>
<circle cx="128.625" cy="22.9204" r="1.22413" transform="rotate(-90 128.625 22.9204)" fill="black"/>
<circle cx="139.394" cy="54.9907" r="1.22413" transform="rotate(-90 139.394 54.9907)" fill="black"/>
<circle cx="139.394" cy="22.9204" r="1.22413" transform="rotate(-90 139.394 22.9204)" fill="black"/>
<circle cx="160.205" cy="54.9907" r="1.22413" transform="rotate(-90 160.205 54.9907)" fill="black"/>
<circle cx="160.205" cy="22.9204" r="1.22413" transform="rotate(-90 160.205 22.9204)" fill="black"/>
<circle cx="149.923" cy="54.9907" r="1.22413" transform="rotate(-90 149.923 54.9907)" fill="black"/>
<circle cx="149.923" cy="22.9204" r="1.22413" transform="rotate(-90 149.923 22.9204)" fill="black"/>
<circle cx="96.3062" cy="44.2212" r="1.22413" transform="rotate(-90 96.3062 44.2212)" fill="black"/>
<circle cx="96.3062" cy="12.147" r="1.22413" transform="rotate(-90 96.3062 12.147)" fill="black"/>
<circle cx="107.078" cy="44.2212" r="1.22413" transform="rotate(-90 107.078 44.2212)" fill="black"/>
<circle cx="107.078" cy="12.147" r="1.22413" transform="rotate(-90 107.078 12.147)" fill="black"/>
<circle cx="117.853" cy="44.2212" r="1.22413" transform="rotate(-90 117.853 44.2212)" fill="black"/>
<circle cx="117.853" cy="12.147" r="1.22413" transform="rotate(-90 117.853 12.147)" fill="black"/>
<circle cx="128.625" cy="44.2212" r="1.22413" transform="rotate(-90 128.625 44.2212)" fill="black"/>
<circle cx="128.625" cy="12.147" r="1.22413" transform="rotate(-90 128.625 12.147)" fill="black"/>
<circle cx="139.394" cy="44.2212" r="1.22413" transform="rotate(-90 139.394 44.2212)" fill="black"/>
<circle cx="139.394" cy="12.147" r="1.22413" transform="rotate(-90 139.394 12.147)" fill="black"/>
<circle cx="160.205" cy="44.2212" r="1.22413" transform="rotate(-90 160.205 44.2212)" fill="black"/>
<circle cx="160.205" cy="12.147" r="1.22413" transform="rotate(-90 160.205 12.147)" fill="black"/>
<circle cx="149.923" cy="44.2212" r="1.22413" transform="rotate(-90 149.923 44.2212)" fill="black"/>
<circle cx="149.923" cy="12.147" r="1.22413" transform="rotate(-90 149.923 12.147)" fill="black"/>
<circle cx="96.3062" cy="33.4477" r="1.22413" transform="rotate(-90 96.3062 33.4477)" fill="black"/>
<circle cx="96.3062" cy="1.37743" r="1.22413" transform="rotate(-90 96.3062 1.37743)" fill="black"/>
<circle cx="107.078" cy="33.4477" r="1.22413" transform="rotate(-90 107.078 33.4477)" fill="black"/>
<circle cx="107.077" cy="1.37743" r="1.22413" transform="rotate(-90 107.077 1.37743)" fill="black"/>
<circle cx="117.851" cy="33.4477" r="1.22413" transform="rotate(-90 117.851 33.4477)" fill="black"/>
<circle cx="117.853" cy="1.37743" r="1.22413" transform="rotate(-90 117.853 1.37743)" fill="black"/>
<circle cx="128.625" cy="33.4477" r="1.22413" transform="rotate(-90 128.625 33.4477)" fill="black"/>
<circle cx="128.625" cy="1.37743" r="1.22413" transform="rotate(-90 128.625 1.37743)" fill="black"/>
<circle cx="139.394" cy="33.4477" r="1.22413" transform="rotate(-90 139.394 33.4477)" fill="black"/>
<circle cx="139.394" cy="1.37743" r="1.22413" transform="rotate(-90 139.394 1.37743)" fill="black"/>
<circle cx="160.205" cy="33.4477" r="1.22413" transform="rotate(-90 160.205 33.4477)" fill="black"/>
<circle cx="160.205" cy="1.37743" r="1.22413" transform="rotate(-90 160.205 1.37743)" fill="black"/>
<circle cx="149.923" cy="33.4477" r="1.22413" transform="rotate(-90 149.923 33.4477)" fill="black"/>
<circle cx="149.923" cy="1.37743" r="1.22413" transform="rotate(-90 149.923 1.37743)" fill="black"/>
<path d="M161.039 161.047L140.217 161.047C140.217 149.547 149.539 140.225 161.039 140.225L161.039 161.047Z" fill="#FF8B8B"/>
<path d="M0.216797 161.047L21.039 161.047C21.039 149.547 11.7166 140.225 0.216799 140.225L0.216797 161.047Z" fill="#30B34C"/>
</svg>
