<svg width="28" height="28" viewBox="0 0 28 28" fill="none" xmlns="http://www.w3.org/2000/svg">
<g clip-path="url(#clip0_352_890)">
<path fill-rule="evenodd" clip-rule="evenodd" d="M25.8803 24.5264L19.0615 17.7077L19.9334 16.8359C20.4204 16.3489 21.068 16.0806 21.7568 16.0806C22.4455 16.0806 23.0932 16.3489 23.5801 16.8359L26.7521 20.0078C27.239 20.4948 27.5074 21.1424 27.5074 21.8312C27.5074 22.5202 27.239 23.1676 26.7521 23.6546L25.8803 24.5264Z" fill="#0BB0FF"/>
<path fill-rule="evenodd" clip-rule="evenodd" d="M3.47656 2.12397L4.34842 1.25215C4.8354 0.765143 5.48301 0.496826 6.1718 0.496826C6.86059 0.496826 7.50819 0.765143 7.99519 1.25215L11.1673 4.42407C12.1726 5.42933 12.1726 7.06532 11.1673 8.07084L10.2955 8.94266L3.47656 2.12397Z" fill="#0BB0FF"/>
<path fill-rule="evenodd" clip-rule="evenodd" d="M24.6808 25.6696C22.3801 27.5762 19.4217 27.9924 16.07 26.865C13.1987 25.899 10.0224 23.7723 7.1264 20.8764C4.23042 17.9804 2.10349 14.8041 1.13777 11.9326C0.0103763 8.58113 0.426531 5.62274 2.33311 3.32202L9.18479 10.1737C7.71249 12.4688 9.82951 15.1857 11.3232 16.6794C12.8171 18.1731 15.534 20.2903 17.8289 18.8178L24.6808 25.6696Z" fill="#0BB0FF"/>
</g>
<defs>
<clipPath id="clip0_352_890">
<rect width="26.9901" height="26.9896" fill="white" transform="translate(0.517578 0.496582)"/>
</clipPath>
</defs>
</svg>
